<svg width="203" height="32" viewBox="0 0 203 32" fill="none" xmlns="http://www.w3.org/2000/svg">
<path d="M9.93182 15.8239L8.61809 13.8533C8.3218 13.4088 8.17366 13.1866 7.95017 13.0602C7.72667 12.9339 7.4599 12.9215 6.92634 12.8966L4.15575 12.7678L1.88803 12.6623C1.34764 12.6372 1.07744 12.6246 0.859661 12.7123C0.640091 12.8008 0.455783 12.9591 0.33525 13.1628C0.215699 13.3649 0.187383 13.6339 0.130751 14.1719C0.0612123 14.8325 0.026443 15.1628 0.0114276 15.4939C-0.0038092 15.8298 -0.0038092 16.1662 0.0114276 16.5021C0.026443 16.8332 0.0613031 17.1644 0.131023 17.8267C0.187936 18.3674 0.216392 18.6377 0.336682 18.8403C0.455885 19.0411 0.637129 19.1977 0.85309 19.2865C1.07102 19.3761 1.34187 19.3651 1.88357 19.3429L8.27263 19.0822H8.27264C8.66582 19.0661 8.86241 19.0581 9.03964 18.9845C9.05261 18.9791 9.06548 18.9735 9.07823 18.9676C9.25244 18.8871 9.39157 18.748 9.66983 18.4697C10.2353 17.9043 10.518 17.6216 10.5668 17.2617C10.5703 17.236 10.5728 17.2102 10.5745 17.1844C10.5972 16.8219 10.3754 16.4892 9.93182 15.8239Z" fill="#FEBC23"/>
<path d="M22.0682 16.1762L23.382 18.1468C23.6782 18.5912 23.8264 18.8134 24.0499 18.9398C24.2734 19.0662 24.5401 19.0786 25.0737 19.1034L27.8443 19.2323L30.112 19.3377C30.6524 19.3629 30.9226 19.3754 31.1404 19.2877C31.3599 19.1993 31.5443 19.041 31.6648 18.8372C31.7843 18.6352 31.8127 18.3662 31.8693 17.8282C31.9388 17.1675 31.9736 16.8372 31.9886 16.5062C32.0038 16.1703 32.0038 15.8338 31.9886 15.4979C31.9736 15.1669 31.9387 14.8357 31.869 14.1733C31.8121 13.6327 31.7836 13.3623 31.6634 13.1597C31.5442 12.9589 31.3629 12.8023 31.1469 12.7135C30.929 12.6239 30.6582 12.635 30.1165 12.6571L23.7274 12.9179L23.7274 12.9179C23.3342 12.9339 23.1376 12.942 22.9604 13.0155C22.9474 13.0209 22.9346 13.0266 22.9218 13.0325C22.7476 13.1129 22.6085 13.252 22.3302 13.5303C21.7648 14.0958 21.482 14.3785 21.4332 14.7384C21.4298 14.764 21.4272 14.7898 21.4256 14.8157C21.4029 15.1781 21.6246 15.5108 22.0682 16.1762Z" fill="#FEBC23"/>
<path d="M16.1762 9.93185L18.1468 8.61811C18.5912 8.32182 18.8134 8.17368 18.9398 7.95018C19.0662 7.72669 19.0786 7.45991 19.1034 6.92635L19.2323 4.15576L19.3377 1.88803C19.3629 1.34764 19.3754 1.07744 19.2877 0.859663C19.1993 0.640093 19.041 0.455784 18.8372 0.33525C18.6352 0.215699 18.3662 0.187383 17.8282 0.130751C17.1675 0.0612123 16.8372 0.026443 16.5062 0.0114275C16.1703 -0.00380935 15.8338 -0.00380936 15.4979 0.0114275C15.1669 0.0264429 14.8357 0.0613031 14.1733 0.131023C13.6327 0.187936 13.3623 0.216392 13.1597 0.336683C12.9589 0.455886 12.8024 0.63713 12.7136 0.853092C12.624 1.07102 12.635 1.34188 12.6571 1.88358L12.9179 8.27264L12.9179 8.27266C12.9339 8.66584 12.942 8.86243 13.0155 9.03966C13.0209 9.05263 13.0266 9.0655 13.0325 9.07825C13.1129 9.25246 13.2521 9.39159 13.5303 9.66985C14.0958 10.2353 14.3785 10.518 14.7384 10.5668C14.764 10.5703 14.7898 10.5729 14.8157 10.5745C15.1781 10.5972 15.5108 10.3754 16.1762 9.93185Z" fill="#FEBC23"/>
<path d="M15.8239 22.0682L13.8533 23.3819C13.4088 23.6782 13.1866 23.8264 13.0602 24.0498C12.9339 24.2733 12.9215 24.5401 12.8966 25.0737L12.7678 27.8443L12.6623 30.112C12.6372 30.6524 12.6246 30.9226 12.7123 31.1404C12.8008 31.3599 12.9591 31.5442 13.1628 31.6648C13.3649 31.7843 13.6339 31.8126 14.1719 31.8693C14.8325 31.9388 15.1628 31.9736 15.4938 31.9886C15.8298 32.0038 16.1662 32.0038 16.5021 31.9886C16.8332 31.9736 17.1644 31.9387 17.8267 31.869C18.3674 31.8121 18.6377 31.7836 18.8403 31.6633C19.0411 31.5441 19.1977 31.3629 19.2865 31.1469C19.3761 30.929 19.365 30.6582 19.3429 30.1165L19.0821 23.7274L19.0821 23.7274C19.0661 23.3342 19.0581 23.1376 18.9845 22.9604C18.9791 22.9474 18.9735 22.9345 18.9676 22.9218C18.8871 22.7476 18.748 22.6084 18.4697 22.3302C17.9043 21.7647 17.6216 21.482 17.2617 21.4332C17.236 21.4297 17.2102 21.4272 17.1844 21.4255C16.8219 21.4028 16.4892 21.6246 15.8239 22.0682Z" fill="#FEBC23"/>
<path d="M20.4098 11.8305L22.7321 12.2949C23.2559 12.3997 23.5178 12.4521 23.7652 12.3834C24.0126 12.3147 24.21 12.1349 24.6048 11.7751L26.655 9.90714L28.3331 8.3782C28.733 8.01385 28.933 7.83168 29.0249 7.61566C29.1177 7.39787 29.136 7.15559 29.0772 6.9263C29.0189 6.69888 28.8487 6.48865 28.5083 6.06817C28.0903 5.55188 27.8814 5.29373 27.6579 5.04903C27.4311 4.80072 27.1932 4.56282 26.9449 4.33605C26.7002 4.11259 26.4414 3.90306 25.9238 3.48402C25.5012 3.14195 25.2899 2.97092 25.0616 2.9127C24.8353 2.85502 24.5964 2.87245 24.3809 2.96237C24.1635 3.05311 23.9798 3.25244 23.6124 3.65112L19.279 8.35327L19.279 8.35328C19.0123 8.64265 18.879 8.78734 18.8057 8.96468C18.8004 8.97767 18.7953 8.99075 18.7904 9.00393C18.7241 9.18401 18.7241 9.38077 18.7241 9.77429C18.7241 10.574 18.7241 10.9738 18.9441 11.2628C18.9598 11.2834 18.9762 11.3034 18.9933 11.3229C19.2336 11.5952 19.6256 11.6736 20.4098 11.8305Z" fill="#FEBC23"/>
<path d="M11.5903 20.1696L9.2679 19.7051C8.74414 19.6004 8.48226 19.548 8.23486 19.6166C7.98747 19.6853 7.79005 19.8652 7.39522 20.2249L5.345 22.0929L3.6669 23.6218C3.26701 23.9862 3.06706 24.1684 2.9751 24.3844C2.88237 24.6022 2.864 24.8445 2.92283 25.0737C2.98117 25.3012 3.15136 25.5114 3.49174 25.9319C3.9097 26.4482 4.11868 26.7063 4.34214 26.951C4.5689 27.1993 4.8068 27.4372 5.05511 27.664C5.29981 27.8875 5.55864 28.097 6.07628 28.516C6.49884 28.8581 6.71011 29.0291 6.93844 29.0873C7.16471 29.145 7.40359 29.1276 7.61909 29.0377C7.83655 28.9469 8.02025 28.7476 8.38766 28.3489L12.721 23.6468L12.721 23.6468C12.9877 23.3574 13.121 23.2127 13.1943 23.0354C13.1997 23.0224 13.2048 23.0093 13.2096 22.9961C13.2759 22.816 13.2759 22.6193 13.2759 22.2258C13.2759 21.4261 13.2759 21.0263 13.056 20.7373C13.0403 20.7167 13.0238 20.6966 13.0067 20.6772C12.7665 20.4048 12.3744 20.3264 11.5903 20.1696Z" fill="#FEBC23"/>
<path d="M20.1696 20.4097L19.7051 22.732C19.6004 23.2558 19.548 23.5177 19.6167 23.7651C19.6853 24.0125 19.8652 24.2099 20.2249 24.6047L22.0929 26.6549L23.6219 28.3331C23.9862 28.7329 24.1684 28.9329 24.3844 29.0249C24.6022 29.1176 24.8445 29.1359 25.0737 29.0771C25.3012 29.0188 25.5114 28.8486 25.9319 28.5082C26.4482 28.0902 26.7063 27.8813 26.951 27.6578C27.1993 27.431 27.4372 27.1931 27.664 26.9448C27.8875 26.7001 28.097 26.4413 28.516 25.9237C28.8581 25.5011 29.0291 25.2898 29.0873 25.0615C29.145 24.8352 29.1276 24.5963 29.0377 24.3809C28.9469 24.1634 28.7476 23.9797 28.3489 23.6123L23.6468 19.2789L23.6468 19.2789C23.3574 19.0122 23.2127 18.8789 23.0354 18.8056C23.0224 18.8003 23.0093 18.7951 22.9961 18.7903C22.816 18.724 22.6193 18.724 22.2258 18.724C21.4261 18.724 21.0263 18.724 20.7373 18.944C20.7167 18.9596 20.6966 18.9761 20.6772 18.9932C20.4048 19.2335 20.3264 19.6255 20.1696 20.4097Z" fill="#FEBC23"/>
<path d="M11.8305 11.5902L12.2949 9.26783C12.3997 8.74406 12.4521 8.48218 12.3834 8.23479C12.3147 7.98739 12.1349 7.78998 11.7751 7.39514L9.90715 5.34492L8.3782 3.66681C8.01386 3.26692 7.83169 3.06698 7.61567 2.97501C7.39788 2.88228 7.1556 2.86391 6.92631 2.92274C6.69889 2.98109 6.48866 3.15128 6.06819 3.49166C5.55189 3.90961 5.29374 4.11859 5.04904 4.34206C4.80073 4.56882 4.56283 4.80672 4.33607 5.05503C4.1126 5.29973 3.90308 5.55856 3.48403 6.0762C3.14197 6.49876 2.97094 6.71003 2.91272 6.93836C2.85503 7.16463 2.87247 7.40352 2.96238 7.61901C3.05312 7.83647 3.25246 8.02018 3.65114 8.38759L8.35328 12.7209L8.35329 12.7209C8.64266 12.9876 8.78734 13.121 8.96469 13.1942C8.97767 13.1996 8.99076 13.2047 9.00394 13.2096C9.18402 13.2759 9.38078 13.2759 9.7743 13.2759C10.574 13.2759 10.9738 13.2759 11.2628 13.0559C11.2834 13.0402 11.3034 13.0238 11.3229 13.0066C11.5952 12.7664 11.6736 12.3743 11.8305 11.5902Z" fill="#FEBC23"/>
<path d="M154.472 9.7423C156.295 9.7423 157.68 10.2318 158.625 11.2108C159.587 12.1731 160.068 13.5321 160.068 15.2877V20.5292C160.068 20.8404 160.116 21.0642 160.211 21.2006C160.217 21.2089 160.224 21.2166 160.231 21.2235C160.35 21.3346 160.532 21.3902 160.777 21.3902H161.045C161.163 21.3902 161.258 21.4857 161.258 21.6035V23.3423C161.258 23.444 161.186 23.5311 161.085 23.5435C161.02 23.5516 160.942 23.5598 160.853 23.5679C160.668 23.5848 160.473 23.5931 160.271 23.5931C159.697 23.5931 159.199 23.5003 158.777 23.3146C158.372 23.1289 158.068 22.8251 157.865 22.4031C157.742 22.1362 157.656 21.816 157.608 21.4429C157.45 21.7711 157.232 22.0743 156.954 22.3523C156.515 22.8081 155.949 23.1712 155.257 23.4413C154.582 23.6945 153.848 23.821 153.054 23.821C151.653 23.821 150.53 23.5002 149.686 22.8588C148.859 22.2173 148.446 21.3141 148.446 20.1494C148.446 18.9846 148.792 18.0815 149.484 17.44C150.193 16.7817 151.282 16.3091 152.75 16.0221L157.211 15.169C157.311 15.1497 157.385 15.0615 157.382 14.9592C157.355 14.0014 157.111 13.2838 156.65 12.8063C156.16 12.2829 155.434 12.0213 154.472 12.0213C153.611 12.0213 152.936 12.2153 152.447 12.6035C151.995 12.9457 151.673 13.4457 151.48 14.1031C151.451 14.202 151.359 14.2699 151.256 14.2633L148.914 14.1129C148.786 14.1047 148.694 13.9865 148.722 13.8617C149.002 12.6227 149.61 11.6378 150.547 10.9071C151.56 10.1306 152.868 9.7423 154.472 9.7423ZM182.721 9.7423C183.818 9.7423 184.789 9.93633 185.633 10.3246C186.494 10.696 187.186 11.2448 187.709 11.9706C188.209 12.6426 188.543 13.452 188.71 14.3988C188.732 14.5222 188.64 14.6351 188.514 14.6419L186.13 14.7708C186.02 14.7768 185.925 14.6984 185.903 14.5908C185.748 13.8064 185.405 13.2031 184.873 12.7808C184.299 12.3082 183.582 12.0719 182.721 12.0719C181.59 12.0719 180.704 12.4939 180.062 13.3379C179.438 14.1651 179.125 15.313 179.125 16.7817C179.125 18.2503 179.438 19.4066 180.062 20.2506C180.704 21.0778 181.59 21.4915 182.721 21.4915C183.582 21.4915 184.299 21.2551 184.873 20.7825C185.409 20.3259 185.753 19.6562 185.906 18.7735C185.925 18.6642 186.022 18.584 186.133 18.59L188.514 18.7188C188.639 18.7255 188.732 18.8389 188.71 18.9625C188.542 19.8956 188.209 20.7132 187.709 21.4154C187.186 22.175 186.494 22.7659 185.633 23.1879C184.789 23.6099 183.818 23.821 182.721 23.821C181.438 23.821 180.315 23.534 179.353 22.96C178.391 22.3861 177.648 21.5674 177.125 20.504C176.601 19.4405 176.34 18.1997 176.34 16.7817C176.34 15.3637 176.602 14.1314 177.125 13.0848C177.648 12.0213 178.391 11.2025 179.353 10.6285C180.315 10.0377 181.438 9.74231 182.721 9.7423ZM196.159 9.7423C197.375 9.74231 198.447 10.0292 199.375 10.6031C200.304 11.1602 201.021 11.9705 201.527 13.034C202.051 14.0975 202.312 15.3805 202.312 16.8829V17.3533C202.312 17.4711 202.217 17.5666 202.099 17.5667H192.864C192.742 17.5667 192.644 17.6691 192.654 17.7908C192.748 18.9959 193.089 19.9087 193.678 20.5292C194.319 21.1875 195.18 21.5167 196.261 21.5167C197.054 21.5167 197.712 21.3311 198.236 20.9598C198.714 20.62 199.059 20.174 199.269 19.6221C199.304 19.531 199.392 19.4701 199.49 19.4763L201.846 19.6263C201.982 19.6349 202.075 19.7667 202.032 19.8958C201.658 21.0295 200.983 21.958 200.008 22.6815C198.978 23.4411 197.721 23.821 196.235 23.821C194.918 23.821 193.779 23.534 192.817 22.96C191.872 22.3861 191.137 21.5674 190.614 20.504C190.108 19.4405 189.854 18.1997 189.854 16.7817C189.854 15.3637 190.108 14.1314 190.614 13.0848C191.137 12.0213 191.872 11.2025 192.817 10.6285C193.762 10.0377 194.876 9.7423 196.159 9.7423ZM126.535 5.53896C126.653 5.53896 126.748 5.63448 126.748 5.7523V7.83251C126.748 7.95031 126.653 8.04584 126.535 8.04584H117.81V13.5152H126.079C126.197 13.5152 126.293 13.6108 126.293 13.7285V15.7327C126.293 15.8505 126.197 15.946 126.079 15.946H117.81V23.304C117.81 23.4217 117.714 23.5173 117.597 23.5173H115.288C115.171 23.5173 115.075 23.4218 115.075 23.304V5.7523C115.075 5.63448 115.171 5.53896 115.288 5.53896H126.535ZM131.375 10.0463C131.493 10.0463 131.588 10.1418 131.588 10.2596V23.304C131.588 23.4218 131.493 23.5173 131.375 23.5173H129.118C129 23.5173 128.904 23.4218 128.904 23.304V10.2596C128.905 10.1418 129 10.0463 129.118 10.0463H131.375ZM141.708 9.7423C142.721 9.7423 143.557 9.97006 144.215 10.4258C144.89 10.8647 145.397 11.4726 145.734 12.2492C146.089 13.0088 146.266 13.8782 146.266 14.8573V23.3038C146.266 23.4216 146.171 23.5171 146.053 23.5171H143.795C143.677 23.5171 143.582 23.4216 143.582 23.3038V15.6675C143.582 14.8741 143.498 14.2073 143.329 13.6671C143.16 13.1269 142.881 12.7132 142.493 12.4263C142.105 12.1393 141.598 11.9958 140.974 11.9958C140.029 11.9959 139.26 12.3082 138.67 12.9327C138.079 13.5573 137.783 14.469 137.783 15.6675V23.3038C137.783 23.4216 137.688 23.5171 137.57 23.5171H135.313C135.195 23.5171 135.099 23.4216 135.099 23.3038V10.2594C135.099 10.1416 135.195 10.0461 135.313 10.046H137.348C137.463 10.046 137.558 10.1381 137.561 10.2535L137.621 12.3663C137.77 11.9736 137.96 11.6307 138.189 11.3375C138.611 10.7973 139.126 10.4007 139.733 10.1475C140.341 9.87742 140.999 9.7423 141.708 9.7423ZM169.627 9.7423C170.64 9.7423 171.476 9.97006 172.134 10.4258C172.809 10.8647 173.316 11.4726 173.653 12.2492C174.008 13.0088 174.185 13.8782 174.185 14.8573V23.3038C174.185 23.4216 174.089 23.5171 173.972 23.5171H171.714C171.596 23.5171 171.501 23.4216 171.501 23.3038V15.6675C171.501 14.8741 171.417 14.2073 171.248 13.6671C171.079 13.1269 170.8 12.7132 170.412 12.4263C170.024 12.1393 169.517 11.9958 168.893 11.9958C167.947 11.9958 167.179 12.3082 166.589 12.9327C165.998 13.5573 165.702 14.469 165.702 15.6675V23.3038C165.702 23.4216 165.607 23.5171 165.489 23.5171H163.232C163.114 23.5171 163.018 23.4216 163.018 23.3038V10.2594C163.018 10.1416 163.114 10.0461 163.232 10.046H165.267C165.382 10.046 165.477 10.1381 165.48 10.2535L165.54 12.3663C165.689 11.9736 165.878 11.6307 166.107 11.3375C166.529 10.7973 167.044 10.4007 167.652 10.1475C168.26 9.87742 168.918 9.7423 169.627 9.7423ZM157.384 17.4198C157.384 17.2858 157.262 17.1849 157.13 17.2102L153.434 17.921C152.624 18.073 152.05 18.3178 151.712 18.6554C151.391 18.9762 151.231 19.3898 151.231 19.8963C151.231 20.4702 151.425 20.9176 151.813 21.2383C152.219 21.5422 152.776 21.694 153.485 21.694C154.295 21.694 154.987 21.5422 155.561 21.2383C156.135 20.9176 156.582 20.4785 156.903 19.9215C157.224 19.3644 157.384 18.7315 157.384 18.0225V17.4198ZM196.159 12.0213C195.197 12.0213 194.404 12.325 193.779 12.9327C193.215 13.4815 192.847 14.2706 192.675 15.3C192.654 15.4272 192.754 15.5408 192.883 15.5408H199.247C199.371 15.5408 199.469 15.4358 199.457 15.3127C199.346 14.2293 199.007 13.419 198.438 12.8821C197.847 12.3081 197.088 12.0213 196.159 12.0213ZM130.297 5.41251C131.038 5.41254 131.639 6.01342 131.639 6.75459C131.639 7.49571 131.038 8.09643 130.297 8.09646H130.196C129.455 8.09646 128.854 7.49573 128.854 6.75459C128.854 6.0134 129.455 5.41251 130.196 5.41251H130.297Z" fill="black"/>
<path d="M74.5076 9.61607C76.372 9.61607 77.8284 10.117 78.8341 11.1565C79.8547 12.1771 80.3497 13.6061 80.3497 15.4071V20.6488C80.3497 20.9352 80.3942 21.0939 80.4426 21.1702C80.4994 21.2187 80.6081 21.2638 80.8128 21.2638H81.048C81.3195 21.2638 81.5396 21.484 81.5397 21.7554V23.435C81.5397 23.6674 81.3726 23.8811 81.1232 23.9104C81.0608 23.9178 80.9899 23.9251 80.911 23.9323C80.7173 23.9499 80.5157 23.9586 80.3064 23.9586C79.7065 23.9586 79.1733 23.8615 78.7135 23.6592L78.7099 23.6577C78.2498 23.4469 77.9051 23.0999 77.6791 22.629L77.6776 22.6257C77.6199 22.5006 77.5706 22.3662 77.5287 22.2229C77.4196 22.3697 77.298 22.5109 77.1633 22.6457L77.1628 22.6454C76.6958 23.1293 76.0999 23.5095 75.382 23.7896L75.3791 23.7909C74.6736 24.0554 73.9096 24.1863 73.0897 24.1863C71.6522 24.1863 70.472 23.8572 69.5733 23.1742L69.5714 23.1727C68.6769 22.479 68.2354 21.4999 68.2354 20.269C68.2354 19.053 68.5986 18.0777 69.3522 17.3792C70.1084 16.6771 71.2479 16.1916 72.7387 15.9002L72.7397 15.9L77.1703 15.0525C77.1403 14.1467 76.9071 13.5089 76.5087 13.0967L76.5058 13.0938C76.077 12.6355 75.4261 12.3865 74.5076 12.3865C73.6816 12.3865 73.0672 12.5731 72.6349 12.9159L72.6326 12.9173L72.6306 12.919C72.2349 13.2192 71.9412 13.6623 71.7591 14.2675C71.694 14.4838 71.4885 14.6421 71.2489 14.6267L68.9706 14.4802C68.6791 14.4615 68.4574 14.1884 68.5266 13.8898L68.5551 13.7713C68.8614 12.5531 69.4867 11.5697 70.4318 10.8327L70.4333 10.8315C71.499 10.0144 72.864 9.61609 74.5076 9.61607ZM100.671 9.61607C102.535 9.61607 103.992 10.117 104.997 11.1565C106.018 12.1771 106.513 13.6061 106.513 15.4071V20.6488C106.513 20.9352 106.557 21.0939 106.606 21.1702C106.663 21.2187 106.771 21.2638 106.976 21.2638H107.211C107.483 21.2638 107.703 21.484 107.703 21.7554V23.435C107.703 23.6674 107.536 23.8811 107.287 23.9104C107.224 23.9178 107.153 23.9251 107.074 23.9323C106.881 23.9499 106.679 23.9586 106.469 23.9586C105.87 23.9586 105.336 23.8615 104.877 23.6592L104.873 23.6577C104.413 23.4469 104.068 23.0999 103.842 22.629L103.841 22.6257C103.783 22.5006 103.734 22.3662 103.692 22.2229C103.583 22.3697 103.461 22.5108 103.326 22.6457L103.326 22.6454C102.859 23.1293 102.263 23.5095 101.545 23.7896L101.542 23.7909C100.837 24.0554 100.073 24.1863 99.253 24.1863C97.8155 24.1863 96.6353 23.8572 95.7365 23.1742L95.7347 23.1727C94.8401 22.479 94.3986 21.5 94.3986 20.269C94.3986 19.053 94.7618 18.0777 95.5155 17.3792C96.2717 16.6771 97.4111 16.1916 98.902 15.9002L98.903 15.9L103.334 15.0525C103.304 14.1467 103.07 13.5089 102.672 13.0967L102.669 13.0938C102.24 12.6355 101.589 12.3865 100.671 12.3865C99.8448 12.3865 99.2302 12.5731 98.798 12.9159L98.7959 12.9173L98.7936 12.919C98.398 13.2192 98.1042 13.6623 97.9222 14.2675C97.8571 14.4838 97.6516 14.6421 97.412 14.6267L95.1336 14.4802C94.8422 14.4615 94.6207 14.1884 94.6899 13.8898L94.7184 13.7713C95.0247 12.5531 95.6499 11.5697 96.5951 10.8327L96.5965 10.8315C97.6623 10.0144 99.0273 9.61608 100.671 9.61607ZM72.5872 23.9261C72.7089 23.9332 72.8328 23.938 72.9591 23.9398L72.9593 23.9396C72.833 23.9378 72.7089 23.9332 72.5872 23.9261ZM98.7503 23.9261C98.872 23.9333 98.996 23.938 99.1224 23.9398L99.1876 23.94C99.0386 23.939 98.8929 23.9345 98.7503 23.9261ZM73.3449 23.9357C73.3531 23.9354 73.3612 23.9353 73.3693 23.935C73.3612 23.9353 73.3531 23.9354 73.3449 23.9357ZM99.5086 23.9357C99.5166 23.9354 99.5246 23.9353 99.5326 23.935C99.5246 23.9353 99.5166 23.9354 99.5086 23.9357ZM73.4685 23.9302C73.4817 23.9295 73.4949 23.9291 73.5081 23.9284C73.4949 23.9291 73.4817 23.9295 73.4685 23.9302ZM99.6317 23.9302C99.645 23.9295 99.6582 23.9291 99.6713 23.9284C99.6582 23.9291 99.645 23.9295 99.6317 23.9302ZM72.4537 23.9171C72.4798 23.9191 72.5061 23.9208 72.5324 23.9225C72.5061 23.9208 72.4798 23.9191 72.4537 23.9171ZM98.618 23.9171C98.643 23.919 98.6682 23.9206 98.6934 23.9223C98.6682 23.9206 98.643 23.919 98.618 23.9171ZM73.6124 23.9213C73.6235 23.9205 73.6345 23.9196 73.6456 23.9188C73.6345 23.9196 73.6235 23.9205 73.6124 23.9213ZM99.7757 23.9213C99.7868 23.9205 99.7978 23.9196 99.8088 23.9188C99.7978 23.9196 99.7868 23.9205 99.7757 23.9213ZM72.2149 23.895C72.2913 23.9034 72.3687 23.9104 72.447 23.9165C72.3687 23.9104 72.2913 23.9034 72.2149 23.895ZM98.3795 23.895C98.4549 23.9032 98.5313 23.9103 98.6086 23.9163C98.5313 23.9103 98.4549 23.9032 98.3795 23.895ZM73.7372 23.9109C73.7538 23.9093 73.7704 23.9079 73.787 23.9063C73.7704 23.9079 73.7538 23.9093 73.7372 23.9109ZM99.9005 23.9109C99.917 23.9093 99.9336 23.9079 99.9501 23.9063C99.9336 23.9079 99.917 23.9093 99.9005 23.9109ZM73.8668 23.8975C73.8884 23.8951 73.9099 23.8927 73.9314 23.89C73.9099 23.8927 73.8884 23.8951 73.8668 23.8975ZM100.032 23.8973C100.052 23.895 100.073 23.8927 100.093 23.8902C100.073 23.8927 100.052 23.895 100.032 23.8973ZM72.096 23.8809C72.1273 23.8848 72.1589 23.8885 72.1906 23.8921C72.1589 23.8885 72.1273 23.8848 72.096 23.8809ZM98.2611 23.8813C98.2885 23.8847 98.316 23.8879 98.3436 23.8911C98.316 23.8879 98.2885 23.8847 98.2611 23.8813ZM50.8781 5.41273C53.0614 5.41273 54.7501 5.80385 55.9073 6.62273C57.0863 7.45713 57.657 8.77542 57.657 10.5204C57.657 11.3154 57.4887 12.0246 57.1445 12.6404C56.7993 13.2583 56.2913 13.7462 55.6291 14.1042L55.6268 14.1054C55.4778 14.1841 55.3224 14.2535 55.1612 14.3146C55.901 14.533 56.5314 14.8857 57.046 15.3786L57.1308 15.4586C57.9913 16.2938 58.4166 17.3816 58.4166 18.6992C58.4166 20.3971 57.8439 21.7097 56.6729 22.5925C55.517 23.4638 53.8952 23.8825 51.8404 23.8825H44.6671C44.3955 23.8825 44.1754 23.6624 44.1754 23.3909V5.9044C44.1754 5.63286 44.3955 5.41274 44.6671 5.41273H50.8781ZM63.0393 9.91982C63.3054 9.91982 63.5234 10.1317 63.531 10.3977L63.5633 11.5359C63.716 11.2645 63.8919 11.0276 64.0922 10.8273L64.0935 10.8263L64.0947 10.825C64.7236 10.2147 65.5579 9.91984 66.5702 9.91982H67.6158C67.8873 9.91982 68.1074 10.14 68.1074 10.4115V12.3254C68.1074 12.597 67.8873 12.8171 67.6158 12.8171H66.5702C65.9201 12.8171 65.3937 12.9231 64.9804 13.1221C64.5748 13.3174 64.2683 13.615 64.0562 14.0219C63.8588 14.433 63.7522 14.9831 63.7522 15.6859V23.3909C63.7522 23.6624 63.5321 23.8825 63.2606 23.8825H61.0681C60.7966 23.8825 60.5764 23.6624 60.5764 23.3909V10.4115C60.5765 10.14 60.7966 9.91984 61.0681 9.91982H63.0393ZM83.7791 9.91982C83.9892 9.91985 84.1762 10.0535 84.2443 10.2523L87.6266 20.1425L91.0084 10.2523C91.0765 10.0535 91.2635 9.91988 91.4736 9.91982H93.8328C94.1745 9.91987 94.4121 10.26 94.2945 10.5809L89.537 23.5602C89.466 23.7539 89.2816 23.8825 89.0753 23.8825H86.1778C85.9713 23.8825 85.7867 23.7534 85.7159 23.5594L80.9828 10.58C80.8659 10.2593 81.1034 9.91988 81.4447 9.91982H83.7791ZM73.9924 23.8821C74.0167 23.8789 74.041 23.8756 74.0651 23.8721C74.041 23.8756 74.0167 23.8789 73.9924 23.8821ZM100.156 23.8821C100.181 23.8788 100.206 23.8755 100.23 23.8719C100.206 23.8755 100.181 23.8788 100.156 23.8821ZM71.8708 23.8486C71.9394 23.8596 72.0089 23.8697 72.0793 23.8788C72.0089 23.8697 71.9394 23.8596 71.8708 23.8486ZM98.1384 23.8646C98.1711 23.8693 98.2039 23.8737 98.237 23.8779C98.2039 23.8737 98.1711 23.8693 98.1384 23.8646ZM98.0359 23.849C98.0668 23.854 98.098 23.8586 98.1293 23.8632C98.098 23.8586 98.0668 23.854 98.0359 23.849ZM100.296 23.8621C100.319 23.8585 100.342 23.8549 100.365 23.8511C100.342 23.8549 100.319 23.8585 100.296 23.8621ZM74.1349 23.8617C74.1573 23.8582 74.1796 23.8548 74.2018 23.8511C74.1796 23.8548 74.1573 23.8582 74.1349 23.8617ZM71.7543 23.8288C71.7783 23.8331 71.8024 23.8372 71.8266 23.8413C71.8024 23.8372 71.7783 23.8331 71.7543 23.8288ZM97.9174 23.8288C97.9414 23.8331 97.9655 23.8372 97.9897 23.8413C97.9655 23.8372 97.9414 23.8331 97.9174 23.8288ZM74.2628 23.8407C74.2889 23.836 74.3149 23.8312 74.3408 23.8263C74.3149 23.8312 74.2889 23.836 74.2628 23.8407ZM100.426 23.8407C100.452 23.8361 100.477 23.8311 100.503 23.8263C100.477 23.8311 100.452 23.8361 100.426 23.8407ZM97.8055 23.8073C97.8316 23.8125 97.8579 23.8176 97.8843 23.8225C97.8579 23.8176 97.8316 23.8125 97.8055 23.8073ZM71.6445 23.8077C71.6695 23.8127 71.6947 23.8176 71.7199 23.8223C71.6947 23.8176 71.6695 23.8127 71.6445 23.8077ZM74.3968 23.8154C74.4197 23.8109 74.4425 23.8059 74.4653 23.8011C74.4425 23.8059 74.4197 23.8109 74.3968 23.8154ZM100.559 23.8154C100.581 23.811 100.603 23.8064 100.625 23.8017C100.603 23.8064 100.581 23.811 100.559 23.8154ZM97.6947 23.784C97.7215 23.7899 97.7485 23.7957 97.7757 23.8013C97.7485 23.7957 97.7215 23.7899 97.6947 23.784ZM71.5293 23.7836C71.5563 23.7895 71.5835 23.7953 71.6108 23.8009C71.5835 23.7953 71.5563 23.7895 71.5293 23.7836ZM74.5339 23.7861C74.552 23.782 74.5702 23.7778 74.5883 23.7736C74.5702 23.7778 74.552 23.782 74.5339 23.7861ZM100.699 23.7857C100.717 23.7818 100.734 23.7778 100.75 23.7738C100.734 23.7778 100.717 23.7818 100.699 23.7857ZM71.4374 23.7625C71.4577 23.7673 71.478 23.7721 71.4985 23.7767C71.478 23.7721 71.4577 23.7673 71.4374 23.7625ZM97.6009 23.7627C97.62 23.7673 97.6392 23.7715 97.6584 23.7759C97.6392 23.7715 97.62 23.7673 97.6009 23.7627ZM100.823 23.7565C100.85 23.7499 100.876 23.743 100.903 23.7361C100.876 23.743 100.85 23.7499 100.823 23.7565ZM74.662 23.7559C74.6879 23.7494 74.7138 23.7428 74.7395 23.7361C74.7138 23.7428 74.6879 23.7494 74.662 23.7559ZM71.3297 23.7359C71.3437 23.7395 71.3577 23.743 71.3718 23.7465C71.3577 23.743 71.3437 23.7395 71.3297 23.7359ZM97.498 23.7373C97.5088 23.7401 97.5197 23.7427 97.5305 23.7454C97.5197 23.7427 97.5088 23.7401 97.498 23.7373ZM74.7837 23.7244C74.8218 23.7141 74.8598 23.7034 74.8976 23.6923C74.8598 23.7034 74.8218 23.7141 74.7837 23.7244ZM100.947 23.7244C100.982 23.715 101.016 23.7053 101.051 23.6952C101.016 23.7053 100.982 23.715 100.947 23.7244ZM71.2126 23.7042C71.2348 23.7104 71.257 23.7165 71.2793 23.7225C71.257 23.7165 71.2348 23.7104 71.2126 23.7042ZM97.3811 23.7057C97.3999 23.7109 97.4187 23.7162 97.4376 23.7213C97.4187 23.7162 97.3999 23.7109 97.3811 23.7057ZM80.3064 23.7127C80.3505 23.7127 80.3943 23.7121 80.4376 23.7113C80.3943 23.7121 80.3505 23.7127 80.3064 23.7127ZM106.47 23.7125C106.514 23.7125 106.558 23.7119 106.601 23.7111C106.558 23.7119 106.514 23.7125 106.47 23.7125ZM80.478 23.7102C80.5151 23.7093 80.5519 23.7082 80.5885 23.7067C80.5519 23.7082 80.5151 23.7093 80.478 23.7102ZM106.641 23.7102C106.678 23.7093 106.715 23.7082 106.751 23.7067C106.715 23.7082 106.678 23.7093 106.641 23.7102ZM80.8887 23.6873C80.7992 23.6954 80.7078 23.7014 80.6145 23.7057C80.6595 23.7036 80.704 23.7015 80.748 23.6986C80.7954 23.6954 80.8423 23.6917 80.8887 23.6875V23.6873ZM107.258 23.6663C107.198 23.6733 107.129 23.6803 107.052 23.6873C106.963 23.6954 106.872 23.7012 106.778 23.7054C106.823 23.7034 106.868 23.7015 106.911 23.6986L107.052 23.6875L107.258 23.6663C107.265 23.6655 107.271 23.6641 107.278 23.6627C107.271 23.6641 107.265 23.6655 107.258 23.6663ZM71.1081 23.6736C71.1322 23.6809 71.1565 23.6882 71.181 23.6952C71.1565 23.6882 71.1322 23.6809 71.1081 23.6736ZM97.2784 23.6757C97.2984 23.6817 97.3185 23.6877 97.3386 23.6936C97.3185 23.6877 97.2984 23.6817 97.2784 23.6757ZM74.9105 23.6886C74.9396 23.68 74.9685 23.6709 74.9974 23.6619C74.9685 23.6709 74.9396 23.68 74.9105 23.6886ZM101.074 23.6886C101.105 23.6792 101.137 23.6693 101.169 23.6594C101.137 23.6693 101.105 23.6792 101.074 23.6886ZM71.0162 23.6444C71.0353 23.6506 71.0544 23.6567 71.0737 23.6627C71.0544 23.6567 71.0353 23.6506 71.0162 23.6444ZM97.1793 23.6444C97.1968 23.6501 97.2145 23.6557 97.2322 23.6613C97.2145 23.6557 97.1968 23.6501 97.1793 23.6444ZM81.1237 23.6604C81.1278 23.6594 81.1319 23.6584 81.136 23.6571C81.1319 23.6584 81.1278 23.6594 81.1237 23.6604ZM107.287 23.6604C107.291 23.6594 107.295 23.6584 107.299 23.6571C107.295 23.6584 107.291 23.6594 107.287 23.6604ZM81.1735 23.6415C81.1622 23.6475 81.1504 23.6524 81.138 23.6565C81.1504 23.6524 81.1622 23.6475 81.1735 23.6415ZM107.336 23.6417C107.325 23.6476 107.313 23.6525 107.301 23.6565C107.313 23.6525 107.325 23.6476 107.336 23.6417ZM75.1653 23.6067H75.1655H75.1653ZM107.338 23.6404C107.343 23.6376 107.348 23.6347 107.353 23.6315C107.348 23.6347 107.343 23.6376 107.338 23.6404ZM81.1791 23.6382C81.1829 23.636 81.1867 23.6339 81.1903 23.6315C81.1867 23.6339 81.1829 23.636 81.1791 23.6382ZM44.6419 23.6357V23.6354C44.6341 23.6347 44.6265 23.6336 44.6189 23.6321C44.6265 23.6336 44.6341 23.6349 44.6419 23.6357ZM89.1468 23.6259C89.1358 23.6292 89.1247 23.6322 89.1132 23.634C89.1247 23.6322 89.1358 23.6292 89.1468 23.6259ZM52.3858 23.6261C52.2893 23.6298 52.1917 23.6325 52.0929 23.6342C52.1917 23.6325 52.2893 23.6298 52.3858 23.6261ZM97.0753 23.6094C97.0944 23.6161 97.1136 23.6225 97.1328 23.629C97.1136 23.6225 97.0944 23.6161 97.0753 23.6094ZM44.5958 23.6263C44.5986 23.6271 44.6014 23.6276 44.6042 23.6284C44.6014 23.6276 44.5986 23.6271 44.5958 23.6263ZM70.9112 23.609C70.9286 23.6151 70.9461 23.6212 70.9637 23.6271C70.9461 23.6212 70.9286 23.6151 70.9112 23.609ZM107.36 23.6271C107.364 23.6243 107.368 23.6212 107.371 23.6182C107.368 23.6212 107.364 23.6243 107.36 23.6271ZM81.1982 23.6259C81.2013 23.6236 81.2044 23.6214 81.2074 23.619C81.2044 23.6214 81.2013 23.6236 81.1982 23.6259ZM89.1547 23.6232C89.1633 23.6202 89.1715 23.6168 89.1797 23.6129C89.1715 23.6168 89.1633 23.6202 89.1547 23.6232ZM44.5729 23.6179C44.5769 23.6196 44.5809 23.6211 44.585 23.6225C44.5809 23.6211 44.5769 23.6196 44.5729 23.6179ZM81.2122 23.615C81.2158 23.6119 81.2194 23.6088 81.2228 23.6054C81.2194 23.6088 81.2158 23.6119 81.2122 23.615ZM107.375 23.615C107.379 23.6119 107.382 23.6088 107.386 23.6054C107.382 23.6088 107.379 23.6119 107.375 23.615ZM44.5508 23.6075C44.5558 23.6102 44.561 23.6127 44.5662 23.615C44.561 23.6127 44.5558 23.6102 44.5508 23.6075ZM52.6762 23.6113C52.6981 23.6099 52.7199 23.6088 52.7416 23.6073C52.7199 23.6088 52.6981 23.6099 52.6762 23.6113ZM89.187 23.6096C89.1958 23.6051 89.2044 23.6002 89.2126 23.5946C89.2044 23.6001 89.1958 23.6051 89.187 23.6096ZM107.389 23.6027C107.391 23.6001 107.394 23.5972 107.396 23.5944C107.394 23.5972 107.391 23.6001 107.389 23.6027ZM52.8168 23.6017C52.85 23.5992 52.883 23.5969 52.9158 23.5942C52.883 23.5969 52.85 23.5992 52.8168 23.6017ZM81.2268 23.6013C81.229 23.5991 81.2312 23.5969 81.2332 23.5946C81.2312 23.5969 81.229 23.5991 81.2268 23.6013ZM70.8195 23.5759C70.8374 23.5825 70.8553 23.5892 70.8733 23.5957C70.8553 23.5892 70.8374 23.5825 70.8195 23.5759ZM96.9872 23.5775C97.0026 23.5833 97.0181 23.589 97.0336 23.5946C97.0181 23.589 97.0026 23.5833 96.9872 23.5775ZM44.5129 23.5823C44.5168 23.5854 44.5207 23.5884 44.5248 23.5913C44.5207 23.5884 44.5168 23.5854 44.5129 23.5823ZM89.2205 23.5888C89.2278 23.5835 89.2347 23.5778 89.2414 23.5717C89.2347 23.5778 89.2278 23.5835 89.2205 23.5888ZM53.0081 23.5861C53.0308 23.584 53.0534 23.582 53.076 23.5798C53.0534 23.582 53.0308 23.584 53.0081 23.5861ZM44.4956 23.5669C44.4988 23.57 44.5021 23.5729 44.5054 23.5759C44.5021 23.5729 44.4988 23.57 44.4956 23.5669ZM81.253 23.5694C81.2543 23.5676 81.2554 23.5656 81.2566 23.5638C81.2554 23.5656 81.2543 23.5676 81.253 23.5694ZM107.416 23.5694C107.417 23.5672 107.419 23.565 107.42 23.5627C107.419 23.565 107.417 23.5672 107.416 23.5694ZM53.1808 23.569C53.2039 23.5665 53.2269 23.5641 53.2498 23.5615C53.2269 23.5641 53.2039 23.5665 53.1808 23.569ZM89.2493 23.564C89.2549 23.5583 89.2602 23.5525 89.2653 23.5463C89.2602 23.5525 89.2549 23.5583 89.2493 23.564ZM44.4802 23.5504C44.4837 23.5545 44.4873 23.5585 44.491 23.5623C44.4873 23.5585 44.4837 23.5545 44.4802 23.5504ZM96.8945 23.5419C96.9049 23.546 96.9152 23.5503 96.9257 23.5544C96.9152 23.5503 96.9049 23.546 96.8945 23.5419ZM70.731 23.5419C70.7412 23.546 70.7515 23.55 70.7618 23.554C70.7515 23.55 70.7412 23.546 70.731 23.5419ZM53.3337 23.5515C53.3612 23.5482 53.3886 23.545 53.4158 23.5415C53.3886 23.545 53.3612 23.5482 53.3337 23.5515ZM44.4667 23.5329C44.4688 23.536 44.471 23.539 44.4733 23.5419C44.471 23.539 44.4688 23.536 44.4667 23.5329ZM89.2714 23.5386C89.2781 23.5295 89.2848 23.5202 89.2903 23.5102C89.2848 23.5203 89.2782 23.5295 89.2714 23.5386ZM81.2841 23.5032C81.2809 23.514 81.2772 23.5245 81.2726 23.5346C81.2772 23.5245 81.2809 23.514 81.2841 23.5032ZM107.436 23.5346C107.438 23.5302 107.44 23.5257 107.441 23.5211C107.44 23.5257 107.438 23.5302 107.436 23.5346ZM53.4856 23.5321C53.5176 23.5277 53.5494 23.5232 53.581 23.5186C53.5494 23.5232 53.5176 23.5277 53.4856 23.5321ZM44.4548 23.5146C44.4568 23.5181 44.4589 23.5215 44.461 23.5248C44.4589 23.5215 44.4568 23.5181 44.4548 23.5146ZM70.6258 23.4988C70.6407 23.5051 70.6557 23.5115 70.6708 23.5177C70.6557 23.5115 70.6407 23.5051 70.6258 23.4988ZM96.7976 23.5023C96.8098 23.5075 96.822 23.5127 96.8343 23.5177C96.822 23.5127 96.8098 23.5075 96.7976 23.5023ZM107.453 23.4815C107.45 23.4937 107.447 23.5055 107.443 23.5169C107.447 23.5055 107.45 23.4937 107.453 23.4815ZM53.6616 23.5065C53.6841 23.503 53.7064 23.4995 53.7287 23.4959C53.7064 23.4995 53.6841 23.503 53.6616 23.5065ZM44.4446 23.4952C44.4459 23.498 44.4472 23.5007 44.4485 23.5034C44.4472 23.5007 44.4459 23.498 44.4446 23.4952ZM44.4354 23.4725C44.4367 23.4763 44.4379 23.4801 44.4394 23.4838C44.4379 23.4801 44.4367 23.4763 44.4354 23.4725ZM53.8325 23.4782C53.8497 23.4752 53.8668 23.4723 53.8839 23.4692C53.8668 23.4723 53.8497 23.4752 53.8325 23.4782ZM70.5379 23.4602C70.5502 23.4658 70.5625 23.4714 70.5749 23.4769C70.5625 23.4714 70.5502 23.4658 70.5379 23.4602ZM96.7043 23.4619C96.7155 23.4669 96.7267 23.4719 96.738 23.4769C96.7267 23.4719 96.7155 23.4669 96.7043 23.4619ZM44.4212 23.3925C44.4213 23.4007 44.4217 23.4087 44.4225 23.4167C44.4217 23.4087 44.4213 23.4007 44.4212 23.3925ZM53.98 23.4513C54.0002 23.4474 54.0203 23.4436 54.0404 23.4396C54.0203 23.4436 54.0002 23.4474 53.98 23.4513ZM70.4466 23.4179C70.4599 23.4243 70.4732 23.4309 70.4866 23.4371C70.4732 23.4309 70.4599 23.4243 70.4466 23.4179ZM96.6115 23.4188C96.6222 23.4239 96.6329 23.4292 96.6436 23.4342C96.6329 23.4292 96.6222 23.4239 96.6115 23.4188ZM54.1287 23.4215C54.15 23.417 54.1713 23.4126 54.1925 23.4079C54.1713 23.4126 54.15 23.417 54.1287 23.4215ZM96.522 23.3748C96.5333 23.3806 96.5447 23.3865 96.5561 23.3921C96.5447 23.3865 96.5333 23.3806 96.522 23.3748ZM70.367 23.379C70.3745 23.3827 70.3818 23.3865 70.3893 23.3902C70.3818 23.3865 70.3745 23.3827 70.367 23.379ZM54.2864 23.3867C54.3036 23.3827 54.3207 23.3789 54.3377 23.3748C54.3207 23.3789 54.3036 23.3827 54.2864 23.3867ZM54.4285 23.3525C54.4473 23.3478 54.4661 23.3432 54.4848 23.3384C54.4661 23.3432 54.4473 23.3478 54.4285 23.3525ZM70.276 23.3319C70.2848 23.3366 70.2936 23.3414 70.3024 23.3461C70.2936 23.3414 70.2848 23.3366 70.276 23.3319ZM96.439 23.3319C96.4479 23.3366 96.4566 23.3414 96.4655 23.3461C96.4566 23.3414 96.4479 23.3366 96.439 23.3319ZM54.5723 23.315C54.5915 23.3098 54.6107 23.3045 54.6298 23.2992C54.6107 23.3045 54.5915 23.3098 54.5723 23.315ZM96.3588 23.2882C96.3643 23.2912 96.3696 23.2943 96.3751 23.2973C96.3696 23.2943 96.3643 23.2912 96.3588 23.2882ZM54.7121 23.2757C54.7335 23.2694 54.7549 23.2629 54.7762 23.2565C54.7549 23.2629 54.7335 23.2694 54.7121 23.2757ZM96.2703 23.2371C96.277 23.2411 96.2836 23.2451 96.2903 23.249C96.2836 23.2451 96.277 23.2411 96.2703 23.2371ZM76.0178 23.2177H76.018H76.0178ZM54.8452 23.2354C54.8688 23.228 54.8924 23.2204 54.9158 23.2127C54.8924 23.2204 54.8688 23.228 54.8452 23.2354ZM102.34 23.1225C102.288 23.1549 102.235 23.1869 102.181 23.2177C102.235 23.1869 102.288 23.1549 102.34 23.1225ZM54.9854 23.1896C55.0066 23.1824 55.0277 23.1751 55.0487 23.1677C55.0277 23.1751 55.0066 23.1824 54.9854 23.1896ZM81.2137 10.4959H81.2139H81.2137ZM55.1214 23.1421C55.1396 23.1355 55.1576 23.1286 55.1756 23.1219C55.1576 23.1286 55.1396 23.1355 55.1214 23.1421ZM96.0034 23.0644C96.0172 23.0741 96.031 23.0838 96.0449 23.0934C96.031 23.0838 96.0172 23.0741 96.0034 23.0644ZM55.2533 23.0927C55.2734 23.0849 55.2934 23.077 55.3133 23.069C55.2934 23.077 55.2734 23.0849 55.2533 23.0927ZM55.3837 23.0402C55.4023 23.0325 55.4209 23.0248 55.4393 23.0169C55.4209 23.0248 55.4023 23.0325 55.3837 23.0402ZM102.504 23.0169H102.504H102.504ZM55.5048 22.9886C55.5231 22.9805 55.5413 22.972 55.5595 22.9638C55.5413 22.972 55.5231 22.9805 55.5048 22.9886ZM55.6356 22.929C55.6511 22.9217 55.6665 22.9141 55.6818 22.9067C55.6665 22.9141 55.6511 22.9217 55.6356 22.929ZM55.7531 22.8717C55.7714 22.8625 55.7895 22.8531 55.8077 22.8438C55.7895 22.8531 55.7714 22.8625 55.7531 22.8717ZM103.152 22.4719C103.07 22.5573 102.984 22.6397 102.892 22.7186C102.953 22.6659 103.012 22.6118 103.069 22.5563C103.097 22.5285 103.125 22.5004 103.153 22.4719H103.152ZM55.8662 22.8136C55.884 22.8041 55.9015 22.7944 55.9191 22.7848C55.9015 22.7944 55.884 22.8041 55.8662 22.8136ZM95.5347 22.6654C95.5663 22.6981 95.599 22.7299 95.6324 22.7615C95.599 22.7299 95.5663 22.6981 95.5347 22.6654ZM69.4349 22.729C69.4431 22.7369 69.4515 22.7447 69.4597 22.7525C69.4515 22.7447 69.4431 22.7369 69.4349 22.729ZM69.3714 22.6654C69.3816 22.676 69.392 22.6863 69.4024 22.6967C69.392 22.6863 69.3816 22.676 69.3714 22.6654ZM56.1 22.6817C56.1085 22.6766 56.1167 22.6712 56.1252 22.6661C56.1167 22.6712 56.1085 22.6766 56.1 22.6817ZM76.8187 22.6386H76.8189H76.8187ZM95.4705 22.5973C95.479 22.6066 95.4876 22.6157 95.4961 22.6248C95.4876 22.6157 95.479 22.6066 95.4705 22.5973ZM95.4099 22.529C95.4178 22.5381 95.4258 22.5472 95.4338 22.5563C95.4258 22.5472 95.4178 22.5381 95.4099 22.529ZM69.2466 22.529C69.2537 22.5373 69.261 22.5454 69.2683 22.5536C69.261 22.5454 69.2537 22.5373 69.2466 22.529ZM69.1883 22.4592C69.1917 22.4634 69.1952 22.4677 69.1987 22.4719C69.1952 22.4677 69.1917 22.4634 69.1883 22.4592ZM95.3511 22.4586C95.3547 22.463 95.3583 22.4675 95.362 22.4719C95.3583 22.4675 95.3547 22.463 95.3511 22.4586ZM77.8528 22.41C77.8549 22.4151 77.8568 22.4202 77.8589 22.4252C77.8568 22.4202 77.8549 22.4151 77.8528 22.41ZM104.016 22.4111C104.018 22.4158 104.02 22.4205 104.022 22.4252C104.02 22.4205 104.018 22.4158 104.016 22.4111ZM95.2915 22.3829C95.301 22.3954 95.3108 22.4077 95.3205 22.42C95.3108 22.4077 95.301 22.3954 95.2915 22.3829ZM69.1333 22.3892C69.1393 22.3971 69.1453 22.4049 69.1514 22.4127C69.1453 22.4049 69.1393 22.3971 69.1333 22.3892ZM103.242 22.3792C103.253 22.3672 103.264 22.3549 103.275 22.3427C103.264 22.3549 103.253 22.3672 103.242 22.3792ZM77.0789 22.3786C77.0887 22.3681 77.0982 22.3575 77.1078 22.3469C77.0982 22.3574 77.0887 22.3681 77.0789 22.3786ZM95.2359 22.3071C95.248 22.3241 95.2604 22.3408 95.2728 22.3575C95.2604 22.3408 95.248 22.3241 95.2359 22.3071ZM69.0774 22.3138C69.0844 22.3235 69.0916 22.3331 69.0987 22.3427C69.0916 22.3331 69.0844 22.3235 69.0774 22.3138ZM77.8133 22.3054C77.8154 22.3116 77.8177 22.3177 77.8199 22.3238C77.8177 22.3177 77.8154 22.3116 77.8133 22.3054ZM95.183 22.2302C95.1956 22.2492 95.2085 22.2678 95.2215 22.2865C95.2085 22.2678 95.1956 22.2492 95.183 22.2302ZM103.337 22.2736C103.344 22.2652 103.351 22.2568 103.358 22.2484C103.351 22.2568 103.344 22.2652 103.337 22.2736ZM69.0247 22.2375C69.0328 22.2496 69.0411 22.2614 69.0493 22.2734C69.0411 22.2614 69.0328 22.2496 69.0247 22.2375ZM56.9106 22.0669C56.8506 22.1249 56.7886 22.1814 56.7243 22.2363C56.7886 22.1814 56.8506 22.1249 56.9106 22.0669ZM77.176 22.2702C77.1823 22.2629 77.1887 22.2557 77.1949 22.2484C77.1887 22.2557 77.1823 22.2629 77.176 22.2702ZM95.137 22.1586C95.1479 22.1761 95.159 22.1936 95.1703 22.2109C95.159 22.1936 95.1479 22.1761 95.137 22.1586ZM68.9739 22.1586C68.9825 22.1724 68.9913 22.1861 69.0001 22.1998C68.9913 22.1861 68.9825 22.1724 68.9739 22.1586ZM77.2687 22.1586C77.2722 22.1541 77.2756 22.1497 77.2791 22.1452C77.2756 22.1497 77.2722 22.1541 77.2687 22.1586ZM68.9279 22.0823C68.9343 22.0934 68.9409 22.1043 68.9474 22.1152C68.9409 22.1043 68.9343 22.0934 68.9279 22.0823ZM95.0909 22.0823C95.0974 22.0933 95.1039 22.1043 95.1105 22.1152C95.1039 22.1043 95.0974 22.0934 95.0909 22.0823ZM103.904 22.0671C103.906 22.0756 103.908 22.0841 103.91 22.0925C103.908 22.0841 103.906 22.0756 103.904 22.0671ZM68.8822 22.0013C68.8902 22.0159 68.8982 22.0305 68.9064 22.045C68.8982 22.0305 68.8902 22.0159 68.8822 22.0013ZM95.0503 22.0104C95.055 22.019 95.0597 22.0274 95.0645 22.0359C95.0597 22.0274 95.055 22.019 95.0503 22.0104ZM68.8404 21.9211C68.8476 21.9354 68.8548 21.9496 68.8622 21.9638C68.8548 21.9496 68.8476 21.9354 68.8404 21.9211ZM95.0036 21.9211C95.0097 21.9332 95.0157 21.9453 95.022 21.9573C95.0157 21.9453 95.0097 21.9332 95.0036 21.9211ZM94.9605 21.8321C94.9693 21.8512 94.9784 21.8701 94.9876 21.889C94.9784 21.8701 94.9693 21.8512 94.9605 21.8321ZM68.8014 21.8411C68.8066 21.8522 68.8119 21.8632 68.8172 21.8742C68.8119 21.8632 68.8066 21.8522 68.8014 21.8411ZM68.7606 21.7494C68.7681 21.767 68.7757 21.7845 68.7835 21.8019C68.7757 21.7845 68.7681 21.767 68.7606 21.7494ZM94.9282 21.76C94.9338 21.773 94.9395 21.7859 94.9453 21.7988C94.9395 21.7859 94.9338 21.773 94.9282 21.76ZM107.457 21.7557V21.7554C107.457 21.7472 107.457 21.7391 107.456 21.7311C107.457 21.7391 107.457 21.7474 107.457 21.7557ZM81.2932 21.7429C81.293 21.7388 81.293 21.7346 81.2926 21.7304C81.293 21.7346 81.293 21.7388 81.2932 21.7429ZM81.2926 21.7304L81.2895 21.709C81.2893 21.7082 81.289 21.7075 81.2889 21.7067C81.2904 21.7145 81.2918 21.7224 81.2926 21.7304ZM68.7276 21.6694C68.7332 21.6836 68.7389 21.6977 68.7447 21.7117C68.7389 21.6977 68.7332 21.6836 68.7276 21.6694ZM94.892 21.6725C94.8972 21.6856 94.9024 21.6987 94.9078 21.7117C94.9024 21.6987 94.8972 21.6856 94.892 21.6725ZM81.2747 21.6604C81.2801 21.6733 81.2842 21.6868 81.2874 21.7007C81.2842 21.6868 81.2801 21.6733 81.2747 21.6604ZM107.45 21.7C107.449 21.6947 107.448 21.6894 107.447 21.6842C107.448 21.6894 107.449 21.6947 107.45 21.7ZM107.443 21.6748C107.442 21.6707 107.44 21.6665 107.439 21.6625C107.44 21.6665 107.442 21.6707 107.443 21.6748ZM81.2739 21.6586C81.2712 21.6524 81.2685 21.6463 81.2653 21.6404C81.2685 21.6463 81.2712 21.6524 81.2739 21.6586ZM107.435 21.6534C107.433 21.649 107.431 21.6447 107.428 21.6404C107.431 21.6447 107.433 21.649 107.435 21.6534ZM107.426 21.6357C107.423 21.63 107.419 21.6245 107.416 21.6192C107.419 21.6245 107.423 21.63 107.426 21.6357ZM81.2612 21.6334C81.2587 21.6291 81.2563 21.6249 81.2537 21.6209C81.2563 21.6249 81.2587 21.6291 81.2612 21.6334ZM68.6951 21.5838C68.7002 21.5977 68.7053 21.6116 68.7106 21.6254C68.7053 21.6116 68.7002 21.5977 68.6951 21.5838ZM94.859 21.5857C94.8639 21.599 94.8688 21.6122 94.8738 21.6254C94.8688 21.6122 94.8639 21.599 94.859 21.5857ZM107.413 21.6157C107.41 21.6109 107.406 21.6062 107.403 21.6017C107.406 21.6062 107.41 21.6109 107.413 21.6157ZM81.2472 21.6117C81.2448 21.6083 81.2423 21.6049 81.2397 21.6017C81.2423 21.6049 81.2448 21.6083 81.2472 21.6117ZM107.399 21.5969C107.395 21.5924 107.391 21.588 107.387 21.5838C107.391 21.588 107.395 21.5924 107.399 21.5969ZM81.2343 21.5954C81.2314 21.5921 81.2286 21.5888 81.2255 21.5857C81.2286 21.5888 81.2314 21.5921 81.2343 21.5954ZM107.383 21.5796C107.379 21.5755 107.374 21.5715 107.37 21.5677C107.374 21.5715 107.379 21.5755 107.383 21.5796ZM81.2176 21.5777C81.2148 21.575 81.2118 21.5724 81.2089 21.5698C81.2118 21.5724 81.2148 21.575 81.2176 21.5777ZM73.516 18.2821L73.5149 18.2823C72.722 18.431 72.2069 18.6635 71.9216 18.9488C71.6525 19.2178 71.5125 19.5662 71.5124 20.0157C71.5124 20.5251 71.6804 20.8971 72.0006 21.164C72.3489 21.4235 72.8462 21.5677 73.5201 21.5677C74.2983 21.5677 74.9477 21.4221 75.4778 21.1423C76.0133 20.8428 76.4277 20.4356 76.7255 19.9184C77.0226 19.4024 77.1739 18.8124 77.1739 18.1419V17.5786L73.516 18.2821ZM99.679 18.2821L99.6782 18.2823C98.8852 18.431 98.37 18.6635 98.0847 18.9488C97.8156 19.2178 97.6757 19.5662 97.6757 20.0157C97.6757 20.5251 97.8437 20.8971 98.1638 21.164C98.5122 21.4235 99.0095 21.5677 99.6834 21.5677C100.462 21.5677 101.111 21.4221 101.641 21.1423C102.177 20.8428 102.591 20.4356 102.889 19.9184C103.186 19.4024 103.337 18.8124 103.337 18.1419V17.5786L99.679 18.2821ZM107.366 21.5644C107.361 21.561 107.357 21.5577 107.353 21.5546C107.357 21.5577 107.361 21.561 107.366 21.5644ZM81.2022 21.5642C81.1972 21.5602 81.1921 21.5564 81.1868 21.5527C81.1921 21.5564 81.1972 21.5602 81.2022 21.5642ZM101.424 21.5127C101.386 21.5282 101.347 21.5429 101.307 21.5571C101.347 21.5429 101.386 21.5282 101.424 21.5127ZM81.1841 21.5507C81.1785 21.547 81.1728 21.5435 81.167 21.5402C81.1728 21.5435 81.1785 21.547 81.1841 21.5507ZM107.347 21.5502C107.341 21.5467 107.336 21.5435 107.33 21.5404C107.336 21.5435 107.341 21.5467 107.347 21.5502ZM81.147 21.5307C81.1538 21.5336 81.1605 21.5367 81.167 21.5402C81.1605 21.5367 81.1538 21.5336 81.147 21.5307ZM94.8288 21.499C94.8333 21.5125 94.8379 21.526 94.8426 21.5394C94.8379 21.526 94.8333 21.5125 94.8288 21.499ZM68.662 21.4873C68.6676 21.5045 68.6732 21.5217 68.6791 21.5388C68.6732 21.5217 68.6676 21.5045 68.662 21.4873ZM107.327 21.5388C107.322 21.5359 107.316 21.5333 107.311 21.5309C107.316 21.5333 107.322 21.5359 107.327 21.5388ZM81.1041 21.5163C81.1172 21.5193 81.13 21.5233 81.1422 21.5284C81.13 21.5233 81.1172 21.5193 81.1041 21.5163ZM107.268 21.5165C107.281 21.5195 107.294 21.5234 107.305 21.5284C107.294 21.5234 107.281 21.5195 107.268 21.5165ZM80.8128 21.5098H81.048C81.0643 21.5098 81.0803 21.5112 81.0957 21.5142C81.0884 21.5127 81.0808 21.5116 81.0732 21.5109L81.048 21.5096H80.8128L80.7241 21.5071L80.8128 21.5098ZM106.976 21.5098H107.211C107.228 21.5098 107.244 21.5111 107.259 21.5142C107.252 21.5127 107.244 21.5116 107.237 21.5109C107.228 21.51 107.22 21.5096 107.211 21.5096H106.976V21.5098ZM106.645 21.4646C106.675 21.4742 106.707 21.482 106.74 21.4886C106.707 21.4821 106.675 21.4742 106.645 21.4646ZM94.793 21.3834C94.7993 21.4049 94.8057 21.4264 94.8124 21.4477C94.8057 21.4264 94.7993 21.4049 94.793 21.3834ZM68.6366 21.4059C68.6404 21.4186 68.6441 21.4313 68.6481 21.444C68.6441 21.4313 68.6404 21.4186 68.6366 21.4059ZM80.3787 21.4217C80.3933 21.4294 80.4085 21.4367 80.4243 21.4434C80.4085 21.4367 80.3933 21.4294 80.3787 21.4217ZM98.0899 21.4129C98.0981 21.4184 98.1066 21.4234 98.1149 21.4288C98.105 21.4223 98.0948 21.4162 98.0851 21.4096L98.0899 21.4129ZM80.3157 21.3834C80.3195 21.386 80.3234 21.3885 80.3272 21.3911C80.3148 21.3827 80.3028 21.3739 80.2914 21.3646L80.3157 21.3834ZM106.454 21.3646C106.466 21.374 106.478 21.3826 106.49 21.3911C106.478 21.3827 106.466 21.3739 106.455 21.3646L106.432 21.3446L106.454 21.3646ZM94.7718 21.3069C94.7774 21.3282 94.7832 21.3494 94.7893 21.3704C94.7832 21.3494 94.7774 21.3282 94.7718 21.3069ZM68.6087 21.3069C68.6132 21.3239 68.6177 21.3409 68.6224 21.3577C68.6177 21.3409 68.6132 21.3239 68.6087 21.3069ZM68.587 21.2211C68.5906 21.2363 68.5943 21.2514 68.5981 21.2665C68.5943 21.2514 68.5906 21.2363 68.587 21.2211ZM94.7478 21.2113C94.7521 21.2298 94.7565 21.2482 94.7611 21.2665C94.7565 21.2482 94.7521 21.2298 94.7478 21.2113ZM80.1707 21.1648C80.1762 21.181 80.1823 21.1964 80.1885 21.2113C80.1812 21.1936 80.1742 21.1752 80.1678 21.1559L80.1707 21.1648ZM94.7261 21.1127C94.7308 21.1356 94.7356 21.1584 94.7407 21.1811C94.7356 21.1584 94.7308 21.1356 94.7261 21.1127ZM52.2931 21.1619C52.1235 21.1738 51.9474 21.1804 51.7646 21.1804H47.4019V21.1807H51.7646C51.9474 21.1806 52.1235 21.1738 52.2931 21.1619ZM80.1537 21.1067C80.158 21.1228 80.1621 21.1385 80.167 21.1536C80.1621 21.1385 80.158 21.1228 80.1537 21.1067ZM94.7084 21.02C94.7122 21.0409 94.7158 21.0618 94.7199 21.0825C94.7158 21.0618 94.7122 21.0409 94.7084 21.02ZM68.5451 21.02C68.5488 21.0407 68.5524 21.0613 68.5564 21.0817C68.5524 21.0613 68.5488 21.0407 68.5451 21.02ZM68.5285 20.9194C68.5319 20.9419 68.5353 20.9642 68.5391 20.9865C68.5353 20.9642 68.5319 20.9419 68.5285 20.9194ZM47.4019 20.9346H51.7646C52.8665 20.9346 53.6858 20.712 54.2529 20.2982C54.8225 19.878 55.1143 19.273 55.1143 18.4459C55.1143 17.637 54.8235 17.0287 54.2489 16.5902L54.2462 16.5884C53.68 16.1446 52.8633 15.9063 51.7646 15.9063H47.4019V20.9346ZM68.5033 20.7188C68.509 20.7757 68.5158 20.8318 68.5237 20.8873C68.5158 20.8318 68.509 20.7757 68.5033 20.7188ZM94.6788 20.8273C94.6814 20.8474 94.6839 20.8674 94.6868 20.8873C94.6839 20.8674 94.6814 20.8474 94.6788 20.8273ZM106.153 14.02C106.229 14.451 106.267 14.9135 106.267 15.4073V20.6488C106.267 20.6837 106.268 20.7175 106.269 20.7502L106.267 20.6488V15.4071C106.267 15.2974 106.265 15.1892 106.262 15.0825C106.256 14.9227 106.246 14.7663 106.232 14.6134C106.208 14.3584 106.173 14.1131 106.126 13.8775L106.153 14.02ZM68.4824 20.3775C68.4848 20.4808 68.4905 20.5819 68.4995 20.6809C68.4905 20.5819 68.4848 20.4808 68.4824 20.3775ZM94.6457 20.3775C94.6466 20.4164 94.6478 20.455 94.6497 20.4934C94.6478 20.455 94.6466 20.4164 94.6457 20.3775ZM87.4016 20.2421C87.409 20.2592 87.418 20.2749 87.4282 20.289C87.4219 20.2802 87.4161 20.2708 87.4107 20.2609L87.3939 20.2219L87.4016 20.2421ZM87.842 20.2609C87.8366 20.2708 87.8307 20.2802 87.8243 20.289C87.8384 20.2695 87.8504 20.2472 87.8591 20.2219L87.842 20.2609ZM102.947 20.2852C102.957 20.2716 102.966 20.2582 102.976 20.2444L102.98 20.2382C102.969 20.2541 102.958 20.2695 102.947 20.2852ZM94.7457 19.2536C94.7322 19.3162 94.7201 19.3798 94.7093 19.4444C94.7201 19.3798 94.7322 19.3162 94.7457 19.2536ZM95.0499 18.3915C95.0093 18.47 94.9718 18.5509 94.9374 18.634C94.9719 18.5509 95.0093 18.47 95.0499 18.3915ZM55.3473 18.7471C55.3462 18.7596 55.3449 18.772 55.3437 18.7844C55.3449 18.772 55.3462 18.7596 55.3473 18.7471ZM68.7741 18.634L68.7743 18.6342L68.7741 18.634ZM55.355 18.6342C55.3554 18.6266 55.3561 18.6189 55.3564 18.6113V18.6086C55.356 18.6171 55.3554 18.6257 55.355 18.6342ZM103.575 18.409C103.575 18.4074 103.575 18.4058 103.575 18.4042L103.576 18.3961C103.576 18.4004 103.575 18.4047 103.575 18.409ZM68.972 18.2375C68.9869 18.2124 69.0019 18.1874 69.0174 18.1627C68.9863 18.212 68.9567 18.2624 68.9283 18.3138L68.972 18.2375ZM58.1539 18.2663C58.153 18.254 58.152 18.2418 58.151 18.2296C58.152 18.2418 58.153 18.254 58.1539 18.2663ZM97.569 16.5034C97.3426 16.5811 97.1296 16.6653 96.9299 16.7561C96.8301 16.8014 96.7336 16.8485 96.6405 16.8971C96.2678 17.0918 95.9485 17.3125 95.6826 17.5594C95.6393 17.5995 95.5973 17.6406 95.5568 17.6827C95.5365 17.7038 95.5166 17.7251 95.497 17.7467C95.4186 17.833 95.3456 17.9234 95.278 18.0179C95.2611 18.0416 95.2446 18.0655 95.2284 18.0896C95.196 18.1379 95.1648 18.1872 95.1351 18.2375L95.1807 18.1629C95.3206 17.9411 95.4879 17.74 95.6826 17.5596C96.1478 17.1276 96.7767 16.7755 97.569 16.5034ZM58.1448 18.1629C58.1433 18.1487 58.1419 18.1344 58.1404 18.1202C58.1419 18.1344 58.1433 18.1487 58.1448 18.1629ZM73.3203 18.0702C73.1937 18.0968 73.0733 18.1261 72.9591 18.1575C73.0734 18.1261 73.1938 18.0968 73.3206 18.0702H73.3203ZM99.3401 18.1019C99.2678 18.1188 99.1978 18.1369 99.1299 18.1554C99.2419 18.1248 99.3597 18.0962 99.4836 18.0702L99.3401 18.1019ZM58.117 17.9388C58.115 17.9249 58.1132 17.911 58.111 17.8971C58.1132 17.911 58.115 17.9249 58.117 17.9388ZM70.5716 16.849C70.4444 16.9124 70.323 16.9787 70.2076 17.0479C70.15 17.0826 70.0938 17.1179 70.0391 17.154C69.8477 17.2802 69.6744 17.4154 69.5193 17.5594C69.4112 17.6596 69.3116 17.7664 69.2204 17.8794L69.2762 17.8123C69.3519 17.724 69.433 17.6398 69.5195 17.5596C69.8076 17.2921 70.1582 17.0552 70.5716 16.849ZM58.0998 17.8284C58.0977 17.8161 58.0957 17.8039 58.0935 17.7917C58.0957 17.8039 58.0977 17.8161 58.0998 17.8284ZM58.081 17.7254C58.0779 17.7096 58.0749 17.6937 58.0716 17.6779C58.0749 17.6937 58.0779 17.7096 58.081 17.7254ZM58.0593 17.6204C58.056 17.6052 58.0526 17.59 58.0491 17.5748C58.0526 17.59 58.056 17.6052 58.0593 17.6204ZM58.0075 17.4094C58.003 17.3929 57.9984 17.3764 57.9937 17.36C57.9984 17.3764 58.003 17.3929 58.0075 17.4094ZM103.45 17.36C103.458 17.3641 103.465 17.3685 103.473 17.3734C103.458 17.3637 103.442 17.3556 103.426 17.3492L103.45 17.36ZM103.372 17.335C103.381 17.3364 103.391 17.3384 103.4 17.3409L103.374 17.3354C103.373 17.3353 103.372 17.3351 103.372 17.335ZM57.9802 17.314C57.9749 17.2964 57.9696 17.2789 57.9641 17.2615C57.9696 17.2789 57.9749 17.2964 57.9802 17.314ZM57.9458 17.2048C57.9415 17.1919 57.9373 17.1789 57.9329 17.1661C57.9373 17.1789 57.9415 17.1919 57.9458 17.2048ZM55.0208 17.0875H55.021H55.0208ZM57.9143 17.1132C57.907 17.0927 57.8997 17.0722 57.892 17.0519C57.8997 17.0722 57.907 17.0927 57.9143 17.1132ZM57.8808 17.0227C57.8716 16.9989 57.8623 16.9751 57.8527 16.9515C57.8623 16.9751 57.8716 16.9989 57.8808 17.0227ZM57.8358 16.9107C57.8302 16.8973 57.8245 16.8839 57.8187 16.8707C57.8245 16.8839 57.8302 16.8973 57.8358 16.9107ZM57.7948 16.8169C57.7884 16.8028 57.7819 16.7888 57.7754 16.7748C57.7819 16.7888 57.7884 16.8028 57.7948 16.8169ZM70.8676 16.7113C70.8337 16.726 70.8 16.741 70.7668 16.7561L70.8679 16.7113C70.9019 16.6965 70.9362 16.6819 70.971 16.6675L70.8676 16.7113ZM57.7525 16.7263C57.7441 16.7089 57.7355 16.6916 57.7268 16.6744C57.7355 16.6916 57.7441 16.7089 57.7525 16.7263ZM57.7064 16.6342C57.6971 16.6161 57.6875 16.5981 57.6779 16.5802C57.6875 16.5981 57.6971 16.6161 57.7064 16.6342ZM71.1839 16.5832H71.1841H71.1839ZM57.6548 16.5377C57.6457 16.5214 57.6364 16.5052 57.627 16.489C57.6364 16.5052 57.6457 16.5214 57.6548 16.5377ZM57.6039 16.4494C57.5942 16.433 57.5843 16.4167 57.5743 16.4004C57.5843 16.4167 57.5942 16.433 57.6039 16.4494ZM72.7858 16.1415C72.6022 16.1774 72.4246 16.2163 72.2528 16.2579C72.167 16.2788 72.0826 16.3002 71.9997 16.3225C71.9168 16.3448 71.8355 16.368 71.7556 16.3917C72.0753 16.2967 72.4188 16.2132 72.786 16.1415H72.7858ZM97.9188 16.3915V16.3917V16.3915ZM57.5562 16.3709C57.5426 16.349 57.5286 16.3274 57.5145 16.3059C57.5286 16.3274 57.5426 16.349 57.5562 16.3709ZM57.4991 16.2821C57.4859 16.2622 57.4723 16.2424 57.4587 16.2227C57.4723 16.2424 57.4859 16.2622 57.4991 16.2821ZM57.436 16.19C57.4222 16.1705 57.4081 16.1512 57.3939 16.1319C57.4081 16.1512 57.4222 16.1705 57.436 16.19ZM57.3166 16.0302C57.3013 16.0108 57.2857 15.9917 57.27 15.9725C57.2857 15.9917 57.3013 16.0108 57.3166 16.0302ZM57.2468 15.9444C57.2291 15.9232 57.2111 15.9022 57.1929 15.8813C57.2111 15.9022 57.2291 15.9232 57.2468 15.9444ZM57.1085 15.7873C57.0602 15.7354 57.0105 15.6842 56.9589 15.6342V15.6344C57.0104 15.6844 57.0603 15.7354 57.1085 15.7873ZM47.1733 15.8152C47.1707 15.8218 47.1685 15.8285 47.1664 15.8352C47.1685 15.8285 47.1707 15.8218 47.1733 15.8152ZM47.3767 15.6617C47.3552 15.6639 47.3346 15.669 47.3152 15.6763C47.3346 15.669 47.3552 15.6641 47.3767 15.6619L47.4019 15.6604L47.3767 15.6617ZM56.7662 15.4552C56.7559 15.4461 56.7456 15.4368 56.7352 15.4277C56.7456 15.4368 56.7559 15.4461 56.7662 15.4552ZM56.6937 15.3923C56.6812 15.3817 56.6685 15.3713 56.6558 15.3609C56.6685 15.3713 56.6812 15.3817 56.6937 15.3923ZM56.6189 15.3307C56.6073 15.3213 56.5955 15.312 56.5837 15.3027C56.5955 15.312 56.6073 15.3213 56.6189 15.3307ZM56.5335 15.2638C56.5122 15.2476 56.4908 15.2316 56.4691 15.2159C56.4908 15.2316 56.5122 15.2476 56.5335 15.2638ZM77.3274 15.2438C77.322 15.2481 77.3165 15.2522 77.3108 15.2561C77.3165 15.2522 77.322 15.2481 77.3274 15.2438ZM103.52 15.2159C103.515 15.2211 103.51 15.2262 103.505 15.2311C103.51 15.2262 103.515 15.2211 103.52 15.2159ZM103.539 15.1921C103.547 15.1807 103.553 15.1685 103.559 15.1559C103.553 15.1685 103.547 15.1807 103.539 15.1921ZM56.3258 15.1163C56.317 15.1105 56.3084 15.1045 56.2995 15.0988C56.3084 15.1045 56.317 15.1105 56.3258 15.1163ZM77.3951 14.709C77.4056 14.8197 77.4126 14.9341 77.4164 15.0521L77.4166 15.0519C77.4128 14.9339 77.4056 14.8196 77.3951 14.709ZM56.2537 15.0694C56.2393 15.0603 56.2249 15.0511 56.2104 15.0421C56.2249 15.0511 56.2393 15.0603 56.2537 15.0694ZM80.0814 14.7673C80.0882 14.861 80.0933 14.9561 80.097 15.0523C80.0933 14.9561 80.0882 14.861 80.0814 14.7673ZM56.1689 15.0171C56.1524 15.0072 56.1358 14.9973 56.1191 14.9875C56.1358 14.9973 56.1524 15.0072 56.1689 15.0171ZM56.0835 14.9671C56.0661 14.9572 56.0486 14.9474 56.031 14.9377C56.0486 14.9474 56.0661 14.9572 56.0835 14.9671ZM55.9883 14.9142C55.9747 14.9069 55.961 14.8999 55.9473 14.8927C55.961 14.8999 55.9747 14.9069 55.9883 14.9142ZM55.8583 14.8477C55.8424 14.8399 55.8266 14.8319 55.8106 14.8242C55.8266 14.8319 55.8424 14.8399 55.8583 14.8477ZM55.7629 14.8021C55.7474 14.7949 55.7319 14.7875 55.7162 14.7804C55.7319 14.7875 55.7474 14.7949 55.7629 14.8021ZM55.6712 14.7607C55.6511 14.7519 55.6309 14.7432 55.6106 14.7346C55.6309 14.7432 55.6511 14.7519 55.6712 14.7607ZM55.5787 14.7213C55.5579 14.7127 55.537 14.7042 55.516 14.6959C55.537 14.7042 55.5579 14.7127 55.5787 14.7213ZM55.4679 14.6771C55.457 14.673 55.4461 14.6689 55.4352 14.6648C55.4461 14.6689 55.457 14.673 55.4679 14.6771ZM55.3089 14.6196C55.296 14.6152 55.2832 14.6104 55.2702 14.6061C55.2832 14.6104 55.296 14.6152 55.3089 14.6196ZM55.2521 14.6002C55.2243 14.5911 55.1964 14.5821 55.1683 14.5734C55.1964 14.5821 55.2243 14.5911 55.2521 14.6002ZM55.1233 14.5596C55.1026 14.5533 55.0817 14.5471 55.0608 14.5411C55.0817 14.5471 55.1026 14.5533 55.1233 14.5596ZM103.517 14.3879L103.517 14.3877L103.517 14.3879ZM55.0148 14.5279C54.9931 14.5219 54.9712 14.5161 54.9493 14.5102C54.9712 14.5161 54.9931 14.5219 55.0148 14.5279ZM54.906 14.499C54.8811 14.4926 54.856 14.4864 54.8308 14.4802C54.856 14.4864 54.8811 14.4926 54.906 14.499ZM54.7956 14.4715C54.7779 14.4673 54.7601 14.4634 54.7423 14.4594C54.7601 14.4634 54.7779 14.4673 54.7956 14.4715ZM80.0347 14.3121L80.0349 14.3119L80.0347 14.3121ZM54.6262 14.4344C54.607 14.4304 54.5877 14.4263 54.5683 14.4225C54.5877 14.4263 54.607 14.4304 54.6262 14.4344ZM54.5391 14.4171C54.5107 14.4117 54.4822 14.4063 54.4535 14.4013C54.4822 14.4063 54.5107 14.4117 54.5391 14.4171ZM54.4018 14.3925C54.3836 14.3895 54.3652 14.3863 54.3468 14.3834C54.3652 14.3863 54.3836 14.3895 54.4018 14.3925ZM71.3016 14.3807C71.3023 14.3806 71.303 14.3805 71.3037 14.3804C71.303 14.3805 71.3023 14.3806 71.3016 14.3807ZM97.4649 14.3807C97.4656 14.3806 97.4663 14.3805 97.467 14.3804C97.4663 14.3805 97.4656 14.3806 97.4649 14.3807ZM71.3364 14.3748C71.3385 14.3743 71.3407 14.3739 71.3428 14.3734C71.3407 14.3739 71.3385 14.3743 71.3364 14.3748ZM97.4999 14.3748C97.5018 14.3744 97.5038 14.3739 97.5057 14.3734C97.5038 14.3739 97.5018 14.3744 97.4999 14.3748ZM54.2779 14.3727C54.2617 14.3703 54.2454 14.368 54.2291 14.3657C54.2454 14.368 54.2617 14.3703 54.2779 14.3727ZM97.5353 14.3636C97.538 14.3625 97.5407 14.3612 97.5434 14.36C97.5407 14.3612 97.538 14.3625 97.5353 14.3636ZM71.3726 14.3634C71.3753 14.3623 71.3779 14.3612 71.3806 14.36C71.3779 14.3612 71.3753 14.3623 71.3726 14.3634ZM54.1589 14.3561C54.1451 14.3543 54.1312 14.3526 54.1173 14.3509C54.1312 14.3526 54.1451 14.3543 54.1589 14.3561ZM54.0371 14.3411H54.0377C54.0447 14.3401 54.0517 14.3389 54.0587 14.3379C54.0515 14.3389 54.0443 14.3401 54.0371 14.3411ZM97.5978 14.3273C97.5995 14.3259 97.6013 14.3246 97.603 14.3232C97.6013 14.3246 97.5995 14.3259 97.5978 14.3273ZM71.4353 14.3267C71.4367 14.3256 71.4381 14.3245 71.4395 14.3234C71.4381 14.3245 71.4367 14.3256 71.4353 14.3267ZM97.6251 14.3023C97.627 14.3003 97.6289 14.2983 97.6307 14.2963C97.6289 14.2983 97.627 14.3003 97.6251 14.3023ZM71.4635 14.3007C71.4644 14.2996 71.4655 14.2988 71.4664 14.2977C71.4655 14.2988 71.4644 14.2996 71.4635 14.3007ZM54.3089 14.2973C54.3139 14.2964 54.3189 14.2954 54.3239 14.2944C54.3189 14.2954 54.3139 14.2964 54.3089 14.2973ZM95.1495 14.2348H95.1493H95.1495ZM71.4876 14.2709C71.4884 14.2697 71.4892 14.2686 71.4899 14.2675C71.4892 14.2686 71.4884 14.2697 71.4876 14.2709ZM77.2926 14.089H77.2924H77.2926ZM54.6964 14.2077C54.7212 14.2009 54.7457 14.1939 54.7702 14.1867C54.7457 14.1939 54.7212 14.2009 54.6964 14.2077ZM97.7524 13.9986C97.7315 14.0566 97.7116 14.1161 97.693 14.1769C97.7116 14.1161 97.7315 14.0566 97.7524 13.9986ZM54.8177 14.1725C54.8435 14.1646 54.8691 14.1563 54.8946 14.1479C54.8691 14.1563 54.8435 14.1646 54.8177 14.1725ZM94.9878 14.1596C94.9896 14.1615 94.9916 14.163 94.9934 14.1648C94.9856 14.1571 94.9782 14.1491 94.9715 14.1404L94.9878 14.1596ZM54.9231 14.139C54.9585 14.1271 54.9935 14.1144 55.0283 14.1017C54.9935 14.1144 54.9585 14.1271 54.9231 14.139ZM55.056 14.0915C55.0896 14.079 55.1229 14.0662 55.1558 14.0529C55.1229 14.0662 55.0896 14.079 55.056 14.0915ZM55.166 14.049C55.1997 14.0353 55.233 14.021 55.266 14.0065C55.233 14.021 55.1997 14.0353 55.166 14.049ZM55.3004 13.9911C55.3334 13.9762 55.3662 13.9611 55.3985 13.9454C55.3662 13.9611 55.3334 13.9762 55.3004 13.9911ZM103.351 13.7463C103.367 13.7897 103.382 13.834 103.397 13.8792C103.382 13.834 103.367 13.7897 103.351 13.7463ZM55.6816 13.7904C55.6993 13.7798 55.7171 13.7694 55.7345 13.7586C55.7171 13.7694 55.6993 13.7798 55.6816 13.7904ZM79.3582 12.2365C79.5527 12.5698 79.7092 12.9346 79.8276 13.3307C79.775 13.1546 79.7149 12.9847 79.6472 12.8211C79.6303 12.7801 79.613 12.7396 79.5951 12.6994C79.5415 12.5789 79.4836 12.462 79.4216 12.3486C79.4009 12.3108 79.3799 12.2733 79.3582 12.2363V12.2365ZM55.7781 13.7307C55.7977 13.718 55.8173 13.7054 55.8366 13.6925C55.8173 13.7054 55.7977 13.718 55.7781 13.7307ZM55.8956 13.6521C55.9086 13.6431 55.9215 13.634 55.9343 13.6248C55.9215 13.634 55.9086 13.6431 55.8956 13.6521ZM56.0008 13.5761C56.0108 13.5686 56.0207 13.5611 56.0306 13.5536C56.0207 13.5611 56.0108 13.5686 56.0008 13.5761ZM56.0887 13.5082C56.1028 13.4969 56.1169 13.4856 56.1308 13.4742C56.1169 13.4856 56.1028 13.4969 56.0887 13.5082ZM105.758 12.6996C105.847 12.9003 105.925 13.1106 105.991 13.3307C105.925 13.1105 105.847 12.9001 105.758 12.6994V12.6996ZM56.1779 13.4348C56.1932 13.4218 56.2083 13.4087 56.2233 13.3954C56.2083 13.4087 56.1932 13.4218 56.1779 13.4348ZM56.271 13.3525C56.2857 13.339 56.3003 13.3254 56.3148 13.3117C56.3003 13.3254 56.2857 13.339 56.271 13.3525ZM47.4019 13.085H50.8275C51.9994 13.085 52.8714 12.8614 53.4729 12.445C54.0623 12.0369 54.3548 11.4724 54.3548 10.7227C54.3547 9.91387 54.0646 9.34799 53.5031 8.97857L53.4968 8.97419C52.9325 8.57763 52.0554 8.36065 50.8275 8.36065H47.4019V13.085ZM51.4731 13.3069C51.4046 13.3122 51.335 13.3167 51.2644 13.3202L51.4733 13.3069C51.5419 13.3016 51.6094 13.2953 51.6758 13.2882L51.4731 13.3069ZM56.355 13.2729C56.3703 13.2579 56.3854 13.2428 56.4004 13.2275C56.3854 13.2428 56.3703 13.2579 56.355 13.2729ZM52.0621 13.2348C52.1865 13.2135 52.3067 13.1885 52.4227 13.16C52.3067 13.1885 52.1865 13.2135 52.0621 13.2348ZM56.4385 13.1882C56.4513 13.1746 56.4638 13.1608 56.4764 13.1471C56.4638 13.1608 56.4513 13.1746 56.4385 13.1882ZM69.1258 12.8725C69.0955 12.9392 69.0667 13.0069 69.0389 13.0754C69.0667 13.0069 69.0955 12.9392 69.1258 12.8725ZM56.5223 13.0967C56.5325 13.0851 56.5424 13.0734 56.5525 13.0617C56.5424 13.0734 56.5325 13.0851 56.5223 13.0967ZM52.9164 13.0077C52.8389 13.0371 52.7591 13.0645 52.6768 13.0898C52.7591 13.0645 52.8389 13.0371 52.9164 13.0077ZM64.7079 12.9884C64.6957 12.9954 64.6838 13.003 64.6718 13.0102C64.6855 13.0019 64.6991 12.9935 64.7131 12.9854L64.7079 12.9884ZM56.5979 13.0077C56.6072 12.9964 56.6162 12.9848 56.6254 12.9734C56.6162 12.9848 56.6072 12.9964 56.5979 13.0077ZM64.8737 12.9004H64.8739H64.8737ZM56.6723 12.9136C56.6811 12.9019 56.6898 12.8901 56.6985 12.8784C56.6898 12.8901 56.6811 12.9019 56.6723 12.9136ZM98.5632 12.7882C98.5225 12.822 98.4833 12.8576 98.4449 12.8942C98.4833 12.8576 98.5225 12.8222 98.5632 12.7884L98.6453 12.7232L98.5632 12.7882ZM72.4822 12.7232H72.482C72.428 12.7641 72.3758 12.8073 72.3256 12.8527C72.3499 12.8307 72.3747 12.8093 72.3999 12.7884L72.4822 12.7232ZM56.7406 12.8211C56.7483 12.8102 56.7555 12.7991 56.7631 12.7882C56.7555 12.7991 56.7483 12.8102 56.7406 12.8211ZM53.8746 12.4404C53.794 12.5131 53.7069 12.582 53.6129 12.6471C53.5512 12.6898 53.4871 12.7307 53.4206 12.7694L53.4864 12.73C53.5296 12.7033 53.5718 12.6758 53.6129 12.6473C53.7069 12.5822 53.794 12.5131 53.8746 12.4404ZM67.6645 12.5663C67.6488 12.5694 67.6325 12.5713 67.6158 12.5713L67.641 12.5702C67.649 12.5694 67.6568 12.5678 67.6645 12.5663ZM67.6674 12.5657C67.6744 12.5642 67.6812 12.5625 67.6879 12.5604C67.6812 12.5625 67.6744 12.5642 67.6674 12.5657ZM67.6908 12.5594C67.6971 12.5574 67.7032 12.555 67.7093 12.5525C67.7032 12.555 67.6971 12.5574 67.6908 12.5594ZM67.7143 12.5504C67.7191 12.5483 67.7239 12.5462 67.7285 12.5438C67.7239 12.5462 67.7191 12.5483 67.7143 12.5504ZM67.7364 12.5394C67.7404 12.5372 67.7442 12.5348 67.7481 12.5323C67.7442 12.5348 67.7404 12.5372 67.7364 12.5394ZM67.7554 12.5275C67.7603 12.5241 67.7653 12.5207 67.7699 12.5169C67.7653 12.5207 67.7603 12.5241 67.7554 12.5275ZM67.8047 12.4825C67.7951 12.4941 67.7844 12.5048 67.7729 12.5144C67.7844 12.5048 67.7951 12.4941 67.8047 12.4825ZM102.198 12.4473C102.24 12.4678 102.281 12.4892 102.32 12.5117C102.281 12.4892 102.24 12.4678 102.198 12.4473ZM63.4431 12.4211C63.4342 12.4473 63.4258 12.4738 63.4172 12.5004C63.4258 12.4738 63.4342 12.4473 63.4431 12.4211ZM56.9458 12.4911C56.96 12.465 56.9743 12.439 56.9879 12.4125C56.9743 12.439 56.96 12.465 56.9458 12.4911ZM67.8108 12.475C67.8131 12.472 67.8152 12.4688 67.8174 12.4657C67.8152 12.4688 67.8131 12.472 67.8108 12.475ZM104.824 11.3304C105.154 11.6612 105.428 12.0388 105.645 12.4634L105.585 12.3486C105.378 11.9705 105.124 11.6311 104.824 11.3304C104.794 11.2998 104.764 11.2697 104.734 11.24L104.824 11.3304ZM67.8231 12.4571C67.8254 12.4535 67.8276 12.4498 67.8297 12.4461C67.8276 12.4498 67.8254 12.4535 67.8231 12.4571ZM67.8493 12.4017C67.8451 12.4145 67.84 12.4268 67.8339 12.4386C67.84 12.4268 67.8451 12.4145 67.8493 12.4017ZM67.8514 12.3952C67.853 12.39 67.8541 12.3846 67.8554 12.3792C67.8541 12.3846 67.853 12.39 67.8514 12.3952ZM57.0083 12.3713C57.0187 12.3503 57.0293 12.3294 57.0393 12.3082C57.0293 12.3294 57.0187 12.3503 57.0083 12.3713ZM101.639 12.2475C101.674 12.2561 101.709 12.2653 101.743 12.2748C101.709 12.2653 101.674 12.2561 101.639 12.2475ZM57.0598 12.2632C57.07 12.2407 57.0802 12.2182 57.09 12.1954C57.0802 12.2182 57.07 12.2407 57.0598 12.2632ZM57.1173 12.13C57.1228 12.1164 57.1285 12.1027 57.1339 12.089C57.1285 12.1027 57.1228 12.1164 57.1173 12.13ZM57.156 12.0302C57.163 12.0115 57.1701 11.9929 57.1768 11.974C57.1701 11.9929 57.163 12.0115 57.156 12.0302ZM78.9987 11.7098C79.025 11.743 79.051 11.7765 79.0764 11.8104C79.0256 11.7426 78.973 11.6763 78.9185 11.6115L78.9987 11.7098ZM57.1983 11.9115C57.2041 11.8941 57.2098 11.8767 57.2154 11.8592C57.2098 11.8767 57.2041 11.8941 57.1983 11.9115ZM57.235 11.7959C57.2408 11.7762 57.2467 11.7565 57.2523 11.7367C57.2467 11.7565 57.2408 11.7762 57.235 11.7959ZM57.266 11.6861C57.2725 11.6617 57.2789 11.6372 57.285 11.6125C57.2789 11.6372 57.2725 11.6617 57.266 11.6861ZM57.2952 11.57C57.3014 11.5434 57.3075 11.5166 57.3133 11.4896C57.3075 11.5166 57.3014 11.5434 57.2952 11.57ZM70.0947 11.46H70.0949H70.0947ZM78.7493 11.4219C78.7784 11.4527 78.8072 11.4838 78.8353 11.5154L78.7493 11.4217C78.7202 11.3909 78.6906 11.3605 78.6605 11.3304L78.7493 11.4219ZM63.9229 11.4207C63.9204 11.4243 63.918 11.4279 63.9156 11.4315C63.918 11.4279 63.9204 11.4243 63.9229 11.4207ZM57.3254 11.4315C57.3301 11.4076 57.3346 11.3837 57.3389 11.3596C57.3346 11.3837 57.3301 11.4076 57.3254 11.4315ZM57.3464 11.3165C57.3507 11.2912 57.3546 11.2658 57.3585 11.2402C57.3546 11.2658 57.3507 11.2912 57.3464 11.3165ZM57.3662 11.1884C57.3694 11.1652 57.3721 11.1419 57.375 11.1186C57.3721 11.1419 57.3694 11.1652 57.3662 11.1884ZM77.5299 10.4944C77.8027 10.635 78.0547 10.7987 78.2855 10.9861C78.1537 10.879 78.0149 10.7797 77.8693 10.6879C77.7601 10.6191 77.6471 10.5544 77.5301 10.4942L77.5299 10.4944ZM104.449 10.9863C104.482 11.0131 104.514 11.0402 104.546 11.0679L104.449 10.9861C104.416 10.9593 104.382 10.9331 104.348 10.9073L104.449 10.9863ZM57.3825 11.0573C57.3843 11.0402 57.3858 11.0229 57.3875 11.0057C57.3858 11.0229 57.3843 11.0402 57.3825 11.0573ZM70.7762 10.8857H70.7764H70.7762ZM64.3758 10.9002C64.3571 10.9165 64.3387 10.9332 64.3204 10.95C64.357 10.9163 64.3943 10.8837 64.4324 10.8521L64.3758 10.9002ZM64.5743 10.7425C64.5579 10.7544 64.5416 10.7665 64.5254 10.7788C64.5416 10.7665 64.5579 10.7544 64.5743 10.7425ZM64.7962 10.5975H64.7964H64.7962ZM103.693 10.4944V10.4942V10.4944ZM97.7822 10.4123C97.7351 10.4333 97.6887 10.4552 97.6426 10.4773C97.6887 10.4552 97.7351 10.4333 97.7822 10.4123ZM71.6189 10.4123H71.6191H71.6189ZM81.3037 10.21C81.2565 10.2432 81.222 10.2924 81.207 10.3482C81.202 10.3668 81.1991 10.3861 81.1987 10.4059H81.1989C81.2009 10.3172 81.2515 10.2363 81.3285 10.1948L81.3037 10.21ZM65.4187 10.3257H65.4189H65.4187ZM72.0818 10.2304H72.082H72.0818ZM94.0493 10.2952V10.295V10.2952ZM65.7249 10.2473H65.7252H65.7249ZM91.363 10.1921H91.3628H91.363ZM72.5724 10.0848H72.5726H72.5724ZM57.3989 10.0988C57.3983 10.0883 57.3977 10.0779 57.397 10.0675C57.3977 10.0779 57.3983 10.0883 57.3989 10.0988ZM99.3878 9.95398C99.6573 9.91303 99.9373 9.88576 100.228 9.87211C100.131 9.87666 100.035 9.88265 99.9407 9.89023C99.8935 9.89403 99.8465 9.89818 99.7999 9.90273C99.6599 9.91639 99.5226 9.93351 99.3878 9.95398ZM76.2322 10.0354V10.0352V10.0354ZM102.395 10.0354V10.0352V10.0354ZM57.3925 10.0036C57.3903 9.97341 57.3882 9.9434 57.3856 9.91357C57.3882 9.9434 57.3903 9.97341 57.3925 10.0036ZM57.3812 9.86628C57.3783 9.83478 57.3752 9.80345 57.3718 9.77232C57.3752 9.80345 57.3783 9.83478 57.3812 9.86628ZM57.3623 9.69107C57.3597 9.67037 57.3573 9.64973 57.3545 9.62919C57.3573 9.64973 57.3597 9.67037 57.3623 9.69107ZM57.3445 9.56003C57.3414 9.53855 57.3383 9.51715 57.335 9.49586C57.3383 9.51715 57.3414 9.53855 57.3445 9.56003ZM57.3189 9.40023C57.3166 9.38729 57.3144 9.37436 57.312 9.36148C57.3144 9.37436 57.3166 9.38729 57.3189 9.40023ZM57.2958 9.27732C57.2926 9.26123 57.2894 9.24517 57.286 9.22919C57.2894 9.24517 57.2926 9.26122 57.2958 9.27732ZM57.2687 9.15044C57.2639 9.12945 57.2591 9.10853 57.2541 9.08773C57.2591 9.10853 57.2639 9.12945 57.2687 9.15044ZM57.2395 9.02982C57.2341 9.00833 57.2286 8.98693 57.2229 8.96565C57.2286 8.98693 57.2341 9.00833 57.2395 9.02982ZM57.2039 8.89753C57.1986 8.87879 57.1934 8.86005 57.1879 8.84148C57.1934 8.86005 57.1986 8.87879 57.2039 8.89753ZM57.166 8.77044C57.1604 8.75273 57.1547 8.73508 57.1489 8.71753C57.1547 8.73508 57.1604 8.75273 57.166 8.77044ZM57.1227 8.64128C57.1185 8.62938 57.1144 8.61747 57.1102 8.60565C57.1144 8.61747 57.1185 8.62938 57.1227 8.64128ZM57.0768 8.51648C57.0721 8.50422 57.0673 8.492 57.0625 8.47982C57.0673 8.492 57.0721 8.50422 57.0768 8.51648ZM57.035 8.41273C57.028 8.39614 57.0211 8.37959 57.0139 8.36315C57.0211 8.37959 57.028 8.39614 57.035 8.41273ZM47.4019 8.11461V8.11482H50.8275C51.374 8.11482 51.8607 8.15667 52.2877 8.24065C52.3487 8.25266 52.4085 8.26568 52.4671 8.2794V8.27919C51.9987 8.16949 51.4522 8.11462 50.8277 8.11461H47.4019ZM56.982 8.2919C56.9761 8.27886 56.97 8.26588 56.9639 8.25294C56.97 8.26588 56.9761 8.27886 56.982 8.2919ZM56.932 8.18669C56.9218 8.16599 56.9114 8.14545 56.9008 8.12503C56.9114 8.14545 56.9218 8.16599 56.932 8.18669ZM56.877 8.08003C56.8689 8.06474 56.8606 8.04953 56.8523 8.0344C56.8606 8.04953 56.8689 8.06474 56.877 8.08003ZM56.8137 7.96628C56.8082 7.95684 56.8026 7.94752 56.797 7.93815C56.8026 7.94752 56.8082 7.95684 56.8137 7.96628ZM56.7525 7.8644C56.7449 7.85223 56.7371 7.84021 56.7293 7.82815C56.7371 7.84021 56.7449 7.85223 56.7525 7.8644ZM56.6891 7.76669C56.6809 7.75448 56.6727 7.74234 56.6643 7.73023C56.6727 7.74234 56.6809 7.75447 56.6891 7.76669ZM56.6179 7.66398C56.6107 7.65404 56.6033 7.64427 56.596 7.6344C56.6033 7.64427 56.6107 7.65404 56.6179 7.66398ZM56.5491 7.5719C56.5404 7.56055 56.5314 7.54939 56.5225 7.53815C56.5314 7.54939 56.5404 7.56055 56.5491 7.5719ZM56.4727 7.47607C56.4643 7.46602 56.4557 7.45624 56.4473 7.44628C56.4557 7.45624 56.4643 7.46602 56.4727 7.47607ZM56.397 7.38794C56.3859 7.37532 56.3745 7.36291 56.3631 7.35044C56.3745 7.36291 56.3859 7.37532 56.397 7.38794ZM56.316 7.2994C56.3049 7.28764 56.2934 7.27623 56.282 7.26461C56.2934 7.27623 56.3049 7.28764 56.316 7.2994ZM56.2323 7.21398C56.2221 7.20392 56.2115 7.19415 56.2012 7.18419C56.2115 7.19415 56.2221 7.20391 56.2323 7.21398ZM44.5317 23.5961C44.5371 23.5996 44.5426 23.6029 44.5483 23.6061C44.5426 23.6029 44.5371 23.5996 44.5317 23.5961ZM44.4292 23.4527C44.4298 23.4553 44.4305 23.4577 44.4312 23.4602C44.4305 23.4577 44.4298 23.4553 44.4292 23.4527ZM44.4292 23.4527C44.428 23.4484 44.4269 23.444 44.426 23.4396C44.4269 23.444 44.428 23.4484 44.4292 23.4527ZM54.2204 20.6159C54.2192 20.6166 54.218 20.6174 54.2168 20.6182C54.218 20.6174 54.2192 20.6166 54.2204 20.6159ZM55.3098 19.0252C55.3119 19.0135 55.314 19.0018 55.316 18.99C55.314 19.0018 55.3119 19.0135 55.3098 19.0252ZM57.3787 16.1111C57.3609 16.0872 57.3427 16.0637 57.3243 16.0402C57.3427 16.0637 57.3609 16.0872 57.3787 16.1111ZM57.1775 15.8636C57.1606 15.8444 57.1433 15.8256 57.126 15.8067C57.1433 15.8256 57.1606 15.8444 57.1775 15.8636ZM47.18 15.8004C47.1777 15.8053 47.1753 15.8102 47.1733 15.8152C47.1753 15.8102 47.1777 15.8053 47.18 15.8004ZM53.946 12.3736C53.9566 12.3632 53.9669 12.3525 53.9773 12.3419C53.9669 12.3525 53.9566 12.3632 53.946 12.3736ZM54.1231 12.1784C54.1356 12.1628 54.1479 12.1471 54.16 12.1313C54.1479 12.1471 54.1356 12.1628 54.1231 12.1784ZM57.4043 10.2044C57.4045 10.2078 57.4046 10.2112 57.4048 10.2146C57.4046 10.2112 57.4045 10.2078 57.4043 10.2044ZM47.1904 8.23523C47.1878 8.23953 47.1854 8.2439 47.1831 8.24836C47.1854 8.2439 47.1878 8.23953 47.1904 8.23523Z" fill="black"/>
</svg>
